<?xml version="1.0" encoding="UTF-8" standalone="no"?>
<!-- Created with Inkscape (http://www.inkscape.org/) -->

<svg
   xmlns:dc="http://purl.org/dc/elements/1.1/"
   xmlns:cc="http://creativecommons.org/ns#"
   xmlns:rdf="http://www.w3.org/1999/02/22-rdf-syntax-ns#"
   xmlns:svg="http://www.w3.org/2000/svg"
   xmlns="http://www.w3.org/2000/svg"
   xmlns:sodipodi="http://sodipodi.sourceforge.net/DTD/sodipodi-0.dtd"
   xmlns:inkscape="http://www.inkscape.org/namespaces/inkscape"
   id="svg3362"
   version="1.1"
   inkscape:version="0.91 r13725"
   width="482.5"
   height="727.5"
   viewBox="0 0 482.5 727.5"
   sodipodi:docname="Top1.svg">
  <metadata
     id="metadata3368">
    <rdf:RDF>
      <cc:Work
         rdf:about="">
        <dc:format>image/svg+xml</dc:format>
        <dc:type
           rdf:resource="http://purl.org/dc/dcmitype/StillImage" />
        <dc:title></dc:title>
      </cc:Work>
    </rdf:RDF>
  </metadata>
  <defs
     id="defs3366" />
  <sodipodi:namedview
     pagecolor="#ffffff"
     bordercolor="#666666"
     borderopacity="1"
     objecttolerance="10"
     gridtolerance="10"
     guidetolerance="10"
     inkscape:pageopacity="0"
     inkscape:pageshadow="2"
     inkscape:window-width="1366"
     inkscape:window-height="716"
     id="namedview3364"
     showgrid="false"
     inkscape:zoom="0.64879726"
     inkscape:cx="325.15513"
     inkscape:cy="393.32239"
     inkscape:window-x="-8"
     inkscape:window-y="-8"
     inkscape:window-maximized="1"
     inkscape:current-layer="svg3362" />
  <path
     style="fill:#ffffff"
     d="m 240.96469,722.13787 c -5.0011,-3.86253 -11.7741,-11.58207 -14.2942,-16.29186 -2.1431,-4.00515 -0.2223,-2.27671 3.1376,2.8234 1.8192,2.76143 6.3359,7.04047 10.037,9.50897 l 6.7294,4.48819 4.9573,-2.54043 c 2.7265,-1.39723 7.6512,-5.53502 10.9437,-9.19505 3.2926,-3.66004 5.2512,-5.24203 4.3524,-3.51553 -2.1462,4.12286 -17.0746,18.84353 -19.0684,18.80314 -0.8535,-0.0173 -3.9112,-1.85367 -6.7948,-4.08083 z m -78.2352,-9.74667 c -17.5126,-4.39448 -26.6136,-20.8251 -19.7959,-35.73879 1.2628,-2.7624 3.6212,-6.15263 5.241,-7.53383 2.5878,-2.20669 2.5374,-2.00938 -0.4156,1.62664 -13.6058,16.75272 -0.2522,40.40032 22.8236,40.41798 6.956,0.005 14.0711,-1.50175 17.5,-3.70674 1.6578,-1.06603 1.6467,-1.43517 -0.096,-3.18618 -1.5585,-1.56606 -2.6872,-1.70692 -5.3938,-0.67325 -8.751,3.34214 -21.8518,0.1945 -28.2601,-6.78992 -2.6959,-2.93822 -3.125,-4.5808 -3.125,-11.96239 0,-8.94833 1.6121,-12.27037 7.486,-15.42579 1.6699,-0.89707 1.1043,0.26282 -1.6844,3.45456 -3.9344,4.50293 -4.1653,5.2652 -3.6715,12.12254 0.5715,7.93747 3.2997,12.13414 10.2478,15.76398 3.976,2.07718 13.197,2.7142 18.4928,1.27758 3.3177,-0.90001 3.3423,-0.98292 1.5625,-5.26172 -3.6411,-8.75375 -1.8611,-15.40197 6.2101,-23.19496 2.7034,-2.61017 4.4817,-5.52419 4.4817,-7.34397 0,-4.02182 6.5414,-10.00814 12.0758,-11.05108 12.2632,-2.31097 26.1374,1.25328 35.4199,9.09926 l 4.0796,3.44824 2.3373,-2.89951 c 2.8225,-3.50128 2.9933,-6.78951 0.4624,-8.89948 -1.5039,-1.25368 -2.2865,-1.22198 -3.9533,0.16017 -1.7821,1.47772 -1.99,1.45488 -1.4589,-0.16017 0.8112,-2.46709 4.4304,-3.11615 6.7222,-1.20557 2.3322,1.94432 2.3228,6.3293 -0.02,9.44115 -3.5448,4.70774 -1.8583,4.4843 3.7796,-0.50073 3.1319,-2.76924 8.2946,-5.92496 11.4727,-7.01273 7.1282,-2.4398 20.2633,-2.56534 25.7882,-0.24645 4.8787,2.04761 9.5447,7.57582 9.5448,11.30833 0,1.51602 1.8264,4.1197 4.2556,6.06666 2.4112,1.93261 5.2003,5.89582 6.4355,9.14471 2.15,5.65516 1.8998,8.45973 -1.4782,16.56781 -0.3834,0.92033 1.4116,2.05007 4.6485,2.9256 6.2225,1.68309 14.5132,0.0478 20.1315,-3.9708 9.9229,-7.09762 9.5928,-22.50394 -0.6161,-28.75678 -2.201,-1.34809 -3.4393,-2.45106 -2.7518,-2.45106 3.0696,0 9.1442,5.12766 11.1801,9.43742 2.7178,5.75321 2.0746,14.42816 -1.4284,19.26242 -5.3477,7.38017 -18.2567,10.83586 -28.9597,7.75242 -3.1794,-0.91594 -4.611,-0.78601 -5.9292,0.53814 -0.9558,0.96009 -1.7378,2.05273 -1.7378,2.42807 0,0.37534 3.1937,1.61506 7.0972,2.75496 14.5544,4.25018 29.2796,0.24531 36.2506,-9.85926 4.7468,-6.8805 5.5356,-17.8323 1.7487,-24.27956 -1.484,-2.52647 -2.4941,-4.79857 -2.2447,-5.0491 0.2495,-0.25054 1.752,1.86514 3.3389,4.70151 5.9182,10.57739 2.5344,25.0811 -7.5661,32.4309 -9.4305,6.86227 -26.3193,7.67931 -37.6009,1.81905 -2.4806,-1.28855 -4.2574,-1.42355 -6.6599,-0.50603 -3.8518,1.47107 -12.6774,1.50487 -16.2388,0.0622 -1.6734,-0.67787 0.056,-1.02234 5.2296,-1.04183 9.4946,-0.0358 11.6278,-1.08463 7.6747,-3.7737 -1.5974,-1.08659 -5.5861,-4.19624 -8.8638,-6.91033 -5.2323,-4.33253 -6.2238,-4.72665 -8.125,-3.22974 -1.9286,1.51838 -1.9894,1.47854 -0.556,-0.36409 1.3712,-1.76265 1.1148,-2.45997 -1.7311,-4.70864 -1.8373,-1.45178 -4.8116,-2.64825 -6.6095,-2.65881 -2.3606,-0.014 -2.7879,-0.32528 -1.5376,-1.12069 1.3804,-0.87813 1.1807,-1.39747 -0.9847,-2.5616 -3.2491,-1.7467 -6.4822,-0.90004 -9.545,2.49956 -2.1851,2.4254 -2.1482,2.61081 1.2221,6.14456 3.895,4.0838 9.3593,6.02792 10.7212,3.81439 0.6222,-1.0112 1.0835,-0.90659 1.5655,0.35497 0.3758,0.98378 0.1814,2.58501 -0.432,3.55828 -0.8401,1.33317 -1.1199,1.36893 -1.1343,0.145 -0.01,-0.89353 -0.7244,-1.4619 -1.5863,-1.26307 -1.3971,0.32227 -5.8708,-2.10036 -12.5841,-6.81462 -1.9957,-1.40145 -2.8064,-0.97938 -6.577,3.42409 -4.9749,5.80986 -5.3963,11.05039 -0.94,11.68807 1.7719,0.25356 2.9091,-0.39695 3.2925,-1.88346 0.5196,-2.01445 0.6021,-2.02772 0.7308,-0.11765 0.08,1.18426 -1.083,2.81333 -2.5838,3.62016 -2.3165,1.24535 -3.0633,1.05199 -4.9431,-1.28001 -2.8236,-3.5027 -1.4277,-7.70776 4.6426,-13.98553 l 4.3219,-4.46962 -2.9273,-2.76252 -2.9274,-2.76251 -4.0003,5.00027 c -5.7673,7.20908 -14.1022,11.83151 -19.4997,10.81435 -2.3428,-0.44148 -5.5348,-1.84001 -7.0935,-3.10785 -2.8096,-2.2853 -2.9071,-2.25021 -11.322,4.07545 -5.0332,3.78356 -8.0298,6.84081 -7.3624,7.51127 1.3656,1.37171 12.0142,1.61075 16.34,0.36682 2.5776,-0.74124 2.7431,-0.658 0.9448,0.47523 -3.3461,2.1086 -14.0272,2.9924 -18.2583,1.51079 -3.0213,-1.058 -5.0576,-0.83995 -10.0888,1.08036 -7.7586,2.96134 -17.9172,3.96296 -24.2009,2.38616 z m 40.7429,-14.08324 c 7.7278,-5.21595 9.1967,-7.20148 7.5273,-10.17524 -0.8496,-1.51356 -2.3188,-0.8899 -7.9546,3.37673 -3.8019,2.87826 -8.2942,6.14449 -9.9828,7.25834 -2.6523,1.74944 -2.8406,2.30315 -1.3834,4.067 1.865,2.25723 1.5806,2.36635 11.7935,-4.52683 z m 100.8602,3.08726 c 0,-0.50018 -1.2656,-1.68252 -2.8125,-2.62743 -4.6567,-2.84455 -21.0055,-15.55657 -21.8657,-17.00165 -0.4409,-0.74074 0.1501,-0.57133 1.3133,0.37648 1.8851,1.53598 2.1149,1.36539 2.1149,-1.56955 0,-2.38417 -0.6476,-3.29284 -2.3469,-3.29284 -3.1905,0 -5.5943,-3.19209 -4.7747,-6.34042 0.5112,-1.96354 -0.131,-2.89615 -2.6649,-3.87029 -5.3346,-2.0508 -11.4978,0.57086 -18.2946,7.78204 l -6.0268,6.39411 2.7044,2.71661 2.7044,2.71661 4.1509,-4.55138 c 4.6999,-5.1533 8.2922,-6.69183 12.9077,-5.52819 2.7353,0.6896 3.0776,1.31092 2.4525,4.4507 -0.5911,2.96893 -0.094,4.12553 2.6682,6.20424 1.8672,1.40527 4.0014,3.05784 4.7427,3.6724 0.7413,0.61455 5.2146,3.96957 9.9406,7.45559 6.7981,5.01442 9.0621,6.08593 10.8397,5.13031 1.2358,-0.66435 2.2468,-1.61715 2.2468,-2.11734 z m -48.1161,-24.10062 c -0.4379,-0.71176 0.064,-0.92226 1.1762,-0.49347 2.1655,0.83474 2.5618,1.73474 0.7637,1.73474 -0.6469,0 -1.5199,-0.55857 -1.9399,-1.24127 z m -56.2589,14.7391 c 5.8693,-4.42161 8.8903,-7.58896 9.176,-9.62056 0.3257,-2.31516 0.6848,-2.61098 1.5244,-1.25564 0.9152,1.47739 1.5738,1.50104 3.949,0.14183 l 2.8506,-1.63127 -2.9078,2.5379 c -2.0309,1.77254 -2.6652,3.30583 -2.1032,5.08427 0.9852,3.11829 1.6767,3.13465 5.5662,0.13181 2.1259,-1.64125 3.0765,-3.63794 3.125,-6.56418 0.062,-3.76818 0.4598,-4.22886 3.8198,-4.43064 2.2409,-0.13455 2.7439,0.0408 1.25,0.4358 -3.5756,0.94534 -4.8215,2.45961 -3.9345,4.7817 0.6298,1.64856 1.2655,1.75696 3.4418,0.58695 1.8621,-1.00104 2.4125,-1.01741 1.8198,-0.0542 -1.2522,2.03523 0.9565,1.67855 3.7465,-0.60504 1.7287,-1.4149 1.8573,-1.81038 0.4473,-1.37536 -1.1287,0.34823 -1.9792,-0.11815 -1.9792,-1.0853 0,-1.14186 0.6466,-1.3609 1.9792,-0.67044 1.3441,0.69646 2.9061,0.13378 4.8682,-1.75368 l 2.8891,-2.77918 -4.4951,-3.9645 c -3.3843,-2.98486 -5.7971,-4.01101 -9.7641,-4.15265 -4.0042,-0.14299 -4.4076,-0.31722 -1.6804,-0.72586 5.0796,-0.76117 8.7475,0.40929 13.2752,4.23628 3.7085,3.13453 4.0507,3.20092 6.0339,1.17036 1.9737,-2.02091 1.8728,-2.34052 -1.6477,-5.22181 -10.2226,-8.36659 -25.6624,-11.56091 -36.2492,-7.49952 -3.0965,1.18788 -6.4728,3.36851 -7.5028,4.8458 -2.1186,3.03825 -2.5443,7.71478 -0.592,6.50275 0.7045,-0.43738 1.1264,-0.0935 0.9375,0.76409 -0.1889,0.85766 2.2463,2.66514 5.4115,4.01664 5.0854,2.1714 6.1721,2.25648 9.3399,0.73136 4.4329,-2.13426 4.5768,-3.69469 0.5301,-5.75118 l -3.125,-1.58812 3.3936,-0.0185 c 4.9917,-0.0272 7.0924,4.44611 3.6921,7.86183 -3.3721,3.38729 -8.9149,3.10693 -15.8795,-0.8032 -3.0696,-1.72348 -5.5812,-2.67104 -5.5812,-2.10578 0,0.56524 -0.9433,0.94925 -2.0962,0.85333 -3.3774,-0.28097 -7.9038,7.58859 -7.9038,13.74157 0,6.44436 1.8345,11.82474 4.0316,11.82435 0.8764,-1.6e-4 5.5309,-2.9666 10.3434,-6.59211 z m 108.0028,2.6381 c 2.8733,-8.27969 0.8307,-15.92979 -5.6128,-21.02108 l -3.2849,-2.5956 -5.2874,3.11254 c -2.908,1.71192 -6.2223,3.11257 -7.365,3.11257 -1.4644,0 -2.0777,1.08648 -2.0777,3.68066 0,3.13732 1.4071,4.71282 9.5317,10.67293 5.2424,3.84574 10.2499,6.99227 11.1277,6.99227 0.8778,0 2.2136,-1.77943 2.9684,-3.95429 z m -83.0028,-2.3239 c 0.9184,-2.90654 5.625,-3.43186 5.625,-0.62782 0,3.12546 1.6528,2.19642 8.5217,-4.79028 6.5105,-6.62218 6.5418,-6.69141 4.0432,-8.96277 -2.7625,-2.5113 -2.5256,-2.61039 -11.0459,4.61886 -2.2582,1.91609 -5.6332,3.50261 -7.5,3.52559 -1.8667,0.023 -4.7885,1.20721 -6.4929,2.63163 -3.0144,2.51917 -3.0334,2.63798 -0.6986,4.35295 3.4064,2.50204 6.6213,2.18336 7.5475,-0.74816 z m 4.375,0.52318 c 0,-1.09346 -0.6679,-1.76444 -1.4843,-1.49107 -2.3178,0.77607 -2.7022,3.47916 -0.4948,3.47916 1.0885,0 1.9791,-0.89465 1.9791,-1.98809 z m 42.5,-11.74983 c 0,-3.12972 -1.8213,-4.22663 -5.2191,-3.14333 l -2.6968,0.85979 3.0205,2.33244 c 3.8619,2.9822 4.8954,2.97188 4.8954,-0.0488 z m -19.5893,-7.77719 c 6.3212,-6.29392 11.8425,-9.86486 15.2623,-9.87116 2.7889,-0.005 17.1955,4.89904 14.6074,4.97256 -1.2138,0.0345 -1.1236,0.96012 0.3775,3.87611 1.5903,3.08912 2.5041,3.66569 4.7196,2.97798 5.7062,-1.77117 12.1225,-5.66986 12.1225,-7.36579 0,-3.10267 -6.1864,-9.27229 -10.8467,-10.81727 -10.1045,-3.34982 -26.512,0.63835 -35.5994,8.65317 -2.4442,2.15577 -4.8825,3.50866 -5.4183,3.00643 -0.5358,-0.50222 -0.2593,0.49944 0.6144,2.22595 0.8738,1.7265 1.1424,2.72021 0.5969,2.20826 -0.5455,-0.51196 -1.8873,-0.22944 -2.9818,0.62782 -1.737,1.36043 -1.7836,1.29343 -0.3669,-0.52692 2.0617,-2.64897 -0.1379,-4.23556 -2.279,-1.64397 -1.2746,1.54264 -1.1492,2.35381 0.6771,4.38092 1.2327,1.36824 2.4795,2.48772 2.7706,2.48772 0.2912,0 2.8759,-2.33632 5.7438,-5.19181 z m 28.7914,-0.45857 c -0.7608,-1.99141 -2.9521,-2.61278 -2.9521,-0.83709 0,1.32786 1.3664,2.72055 2.6691,2.72055 0.5514,0 0.6787,-0.84755 0.283,-1.88346 z m -17.9521,19.57674 c 0,-2.22292 3.7343,-3.15882 5.3966,-1.3525 1.1493,1.2489 1.1184,1.40172 -0.1388,0.68645 -0.8895,-0.50606 -2.4364,-0.23726 -3.4375,0.59736 -1.3358,1.1136 -1.8203,1.13188 -1.8203,0.0687 z m -202.268504,-97.74025 0.3935,-14.75375 3.3618,-0.38998 c 2.1258,-0.24659 4.3088,0.56129 5.9375,2.19737 2.1894,2.1993 2.5757,4.15885 2.5757,13.06566 0,11.92837 -1.5933,14.63446 -8.6169,14.63446 l -4.0451,0 0.3935,-14.75376 z m 9.7769,10.97122 c 0.7404,-1.38979 1.1821,-6.88416 0.9814,-12.20971 -0.333,-8.83955 -0.6308,-9.81569 -3.42,-11.20855 -1.6803,-0.83916 -3.5085,-1.24434 -4.0625,-0.9004 -0.554,0.34395 -1.0073,6.52491 -1.0073,13.73546 0,13.09711 0,13.1101 3.0811,13.1101 1.808,0 3.6372,-1.04403 4.4273,-2.5269 z m 6.9375,0.99187 c -1.3562,-1.94504 -1.9459,-5.74984 -1.9459,-12.55639 0,-8.09154 0.4286,-10.19624 2.5,-12.27699 2.9585,-2.97185 4.909,-3.14529 8.1986,-0.72904 2.0882,1.5338 2.4264,3.34474 2.4264,12.99121 0,12.19376 -1.3059,15.36188 -6.3321,15.36188 -1.5956,0 -3.7767,-1.2558 -4.847,-2.79067 z m 7.8041,0.0282 c 0.9385,-0.94272 1.5,-5.6266 1.5,-12.51221 0,-9.44816 -0.3293,-11.18248 -2.3273,-12.25661 -1.621,-0.87145 -2.938,-0.78959 -4.3396,0.26975 -2.7354,2.06743 -3.3157,23.19494 -0.6831,24.8699 2.3757,1.51145 4.084,1.40316 5.85,-0.37083 z m 6.7729,-11.99135 0.3521,-14.75375 4.6875,-0.38971 c 2.864804,-0.23816 4.687504,0.15872 4.687504,1.02065 0,0.77572 -0.9843,1.30978 -2.187504,1.18684 -5.5881,-0.57099 -5.9526,-0.15583 -5.5089,6.27425 0.4228,6.12827 0.4887,6.21651 5,6.6957 l 4.571404,0.4856 -4.687504,0.21108 -4.6875,0.21107 0,6.2024 0,6.2024 4.6875,0.49253 c 4.264704,0.44811 4.148404,0.51159 -1.2896,0.70363 l -5.9772,0.21107 0.3522,-14.75376 z m 14.062904,11.73071 c -1.1389,-1.74607 -1.8021,-3.89908 -1.4738,-4.78446 0.5566,-1.50089 1.3126,-0.17634 2.8437,4.98232 0.5926,1.99646 4.5813,2.03471 6.5443,0.0628 0.825,-0.82872 1.5,-3.07435 1.5,-4.99031 0,-2.58464 -0.948,-3.97601 -3.6741,-5.39207 -7.2772,-3.78017 -9.4778,-10.0575 -5.0759,-14.47926 2.887,-2.89998 4.9612,-3.15171 7.7599,-0.94173 2.3982,1.89369 4.1771,7.21992 2.4113,7.21992 -0.686,0 -1.427,-1.27134 -1.6467,-2.82519 -0.3129,-2.21283 -1.2123,-2.82518 -4.1495,-2.82518 -3.4287,0 -3.7831,0.40201 -4.137,4.69324 -0.3522,4.27107 0,4.87976 3.9409,6.76643 5.615,2.68968 7.6782,7.01056 5.5189,11.55781 -2.2342,4.70493 -7.594,5.19927 -10.362,0.95569 z m 13.1642,-11.4168 c 0,-7.94191 0.5024,-14.43984 1.1163,-14.43984 0.614,0 1.3422,0.70629 1.6183,1.56955 0.9541,2.98315 -0.4726,27.31014 -1.6017,27.31014 -0.6231,0 -1.1329,-6.49793 -1.1329,-14.43985 z m 7.675,3.6913 c -2.3101,-5.9067 -3.9324,-11.0084 -3.6052,-11.33709 0.3273,-0.32871 1.936,2.95226 3.5751,7.291 l 2.9801,7.88863 0.3612,-10.98684 c 0.5366,-16.32225 2.7638,-13.5396 2.7638,3.453 0,7.94192 -0.4218,14.4378 -0.9375,14.43532 -0.5156,-0.003 -2.8275,-4.8373 -5.1375,-10.74401 z m 20.0922,-2.74957 c -0.266,-14.06618 -0.2801,-14.12593 -3.3184,-14.12593 -1.6782,0 -3.3989,-0.56504 -3.8238,-1.25564 -0.4825,-0.78432 2.0704,-1.25564 6.8013,-1.25564 4.2158,0 7.5737,0.5567 7.5737,1.25564 0,0.6906 -1.3878,1.25564 -3.084,1.25564 -3.0724,0 -3.0856,0.0536 -3.4828,14.12593 l -0.3988,14.12594 -0.2672,-14.12594 z m 18.4828,-0.94173 c 0,-8.78947 0.4892,-14.43984 1.25,-14.43984 0.6875,0 1.25,3.1077 1.25,6.90601 0,6.83625 0.038,6.90601 3.75,6.90601 3.7122,0 3.75,-0.0698 3.75,-6.90601 0,-3.79831 0.5625,-6.90601 1.25,-6.90601 0.7609,0 1.25,5.65037 1.25,14.43984 0,8.78947 -0.4891,14.43985 -1.25,14.43985 -0.6875,0 -1.25,-3.10771 -1.25,-6.90601 0,-6.83625 -0.038,-6.90602 -3.75,-6.90602 -3.7121,0 -3.75,0.0698 -3.75,6.90602 0,3.7983 -0.5625,6.90601 -1.25,6.90601 -0.7608,0 -1.25,-5.65038 -1.25,-14.43985 z m 18.6269,0 c 1.7841,-7.94191 3.6085,-14.43984 4.0542,-14.43984 0.9858,0 7.5718,27.7886 6.7756,28.5884 -0.3103,0.31168 -1.0505,-1.33166 -1.6449,-3.65185 -0.9029,-3.52418 -1.726,-4.2824 -5.0008,-4.6067 -3.605,-0.357 -3.987,-0.0292 -4.7546,4.08083 -0.459,2.45795 -1.2483,4.46901 -1.7539,4.46901 -0.5057,0 0.5403,-6.49793 2.3244,-14.43985 z m 6.7615,0.31391 c -0.4396,-2.24446 -1.1865,-5.49342 -1.6599,-7.21992 -0.8069,-2.94279 -0.9499,-2.825 -2.2876,1.88346 -2.1883,7.70269 -1.8874,9.41729 1.6529,9.41729 2.821,0 3.0233,-0.35979 2.2946,-4.08083 z m 14.0725,12.73611 c -0.3289,-0.96209 -1.7342,-6.55209 -3.1229,-12.4222 -1.3887,-5.87011 -2.9034,-12.08552 -3.366,-13.81202 -0.4626,-1.72651 -0.4308,-2.76328 0.071,-2.30395 0.5015,0.45932 2.266,6.05654 3.9212,12.43825 1.6551,6.38169 3.1892,11.78378 3.409,12.00463 0.2199,0.22084 1.6845,-4.95174 3.2548,-11.49462 1.5702,-6.54288 3.3021,-12.17372 3.8485,-12.51298 0.9414,-0.58445 -5.8655,28.29343 -6.9185,29.35114 -0.2743,0.27555 -0.7679,-0.28615 -1.0968,-1.24825 z m 10.812,-13.36393 0.3521,-14.75375 4.6875,-0.38971 c 2.7135,-0.22559 4.6875,0.17099 4.6875,0.94173 0,0.7323 -1.6875,1.33144 -3.75,1.33144 -3.6605,0 -3.75,0.14794 -3.75,6.20239 l 0,6.2024 4.6875,0.49254 4.6875,0.49254 -4.6875,0.21108 -4.6875,0.21107 0,6.2024 0,6.2024 4.6875,0.49253 c 4.2647,0.44811 4.1484,0.51159 -1.2896,0.70363 l -5.9772,0.21107 0.3522,-14.75376 z m 29.7038,1.04369 c -0.578,-13.77432 -0.7122,-14.34597 -3.4135,-14.54386 -6.3531,-0.4654 -3.9232,-1.8814 3.2285,-1.8814 4.3056,0 7.7083,0.55429 7.7083,1.25564 0,0.6906 -1.3878,1.25564 -3.084,1.25564 -3.0737,0 -3.0853,0.0476 -3.4609,14.12593 l -0.3768,14.12594 -0.6016,-14.33789 z m 11.9692,10.9194 c -1.3562,-1.94504 -1.9459,-5.74984 -1.9459,-12.55639 0,-8.09154 0.4286,-10.19624 2.5,-12.27699 2.9585,-2.97185 4.9091,-3.14529 8.1986,-0.72904 2.0882,1.5338 2.4264,3.34474 2.4264,12.99121 0,12.19376 -1.3059,15.36188 -6.3321,15.36188 -1.5956,0 -3.7767,-1.2558 -4.847,-2.79067 z m 7.9516,-0.22426 c 0.9304,-1.12616 1.3229,-5.75792 1.0905,-12.8703 -0.3464,-10.60521 -0.4975,-11.13013 -3.3196,-11.53122 -1.6262,-0.23112 -3.5215,0.14718 -4.2119,0.84065 -1.8173,1.8255 -1.2539,23.09733 0.6438,24.30856 2.2842,1.45786 4.1766,1.2138 5.7972,-0.74769 z m 15.1025,-11.42492 c 0,-8.78947 0.4892,-14.43984 1.25,-14.43984 0.6875,0 1.25,3.1077 1.25,6.90601 0,6.83625 0.038,6.90601 3.75,6.90601 3.7122,0 3.75,-0.0698 3.75,-6.90601 0,-3.79831 0.5625,-6.90601 1.25,-6.90601 0.7609,0 1.25,5.65037 1.25,14.43984 0,8.78947 -0.4891,14.43985 -1.25,14.43985 -0.6875,0 -1.25,-3.10771 -1.25,-6.90601 0,-6.83625 -0.038,-6.90602 -3.75,-6.90602 -3.7121,0 -3.75,0.0698 -3.75,6.90602 0,3.7983 -0.5625,6.90601 -1.25,6.90601 -0.7608,0 -1.25,-5.65038 -1.25,-14.43985 z m 18.6269,0 c 1.7841,-7.94191 3.6085,-14.43984 4.0542,-14.43984 0.9858,0 7.5718,27.7886 6.7756,28.5884 -0.3103,0.31168 -1.0505,-1.33166 -1.6449,-3.65185 -0.9029,-3.52418 -1.726,-4.2824 -5.0008,-4.6067 -3.605,-0.357 -3.987,-0.0292 -4.7546,4.08083 -0.459,2.45795 -1.2483,4.46901 -1.7539,4.46901 -0.5057,0 0.5403,-6.49793 2.3244,-14.43985 z m 6.7615,0.31391 c -0.4396,-2.24446 -1.1865,-5.49342 -1.6599,-7.21992 -0.8069,-2.94279 -0.9499,-2.825 -2.2876,1.88346 -2.1883,7.70269 -1.8874,9.41729 1.6529,9.41729 2.821,0 3.0233,-0.35979 2.2946,-4.08083 z m 14.1397,12.73611 c -2.3216,-7.65045 -6.9793,-27.95737 -6.5186,-28.42014 0.5628,-0.56541 1.1386,1.31763 5.0457,16.50192 1.0486,4.07549 2.089,7.59325 2.312,7.81723 0.223,0.22398 1.6902,-4.94604 3.2604,-11.48892 1.5703,-6.54288 3.4608,-12.27221 4.2012,-12.73185 0.8679,-0.53882 1.0443,-0.0457 0.4965,1.38822 -0.4672,1.22316 -2.2953,7.95313 -4.0623,14.95549 -3.4121,13.5213 -3.8955,14.7442 -4.7349,11.97805 z m 10.7448,-13.36393 0.3521,-14.75375 4.6875,-0.38971 c 2.7135,-0.22559 4.6875,0.17099 4.6875,0.94173 0,0.7323 -1.6875,1.33144 -3.75,1.33144 -3.6605,0 -3.75,0.14794 -3.75,6.20239 l 0,6.2024 4.6875,0.49254 4.6875,0.49254 -4.6875,0.21108 c -4.6004,0.20716 -4.6875,0.3044 -4.6875,5.23363 0,2.7624 -0.1406,5.44633 -0.3125,5.96428 -0.1718,0.51796 1.9375,1.28532 4.6875,1.70527 l 5,0.76356 -5.9771,0.17817 -5.9772,0.17819 0.3522,-14.75376 z m 22.5173,0 0.3348,-14.75375 3.5481,-0.40803 c 5.0463,-0.58034 8.3269,2.84341 8.3269,8.69018 0,2.61462 -0.564,5.104 -1.2533,5.53197 -0.8311,0.51598 -0.8077,1.61468 0.07,3.26117 0.7276,1.36568 1.1086,4.86288 0.8467,7.77155 l -0.4761,5.28849 -0.2184,-5.71316 c -0.2449,-6.40685 -1.8647,-8.72669 -6.0934,-8.72669 -2.6515,0 -2.875,0.53684 -2.875,6.90602 0,3.84771 -0.5634,6.90601 -1.2723,6.90601 -0.8099,0 -1.1506,-5.36209 -0.9375,-14.75376 z m 8.9956,-2.28706 c 3.9503,-3.96816 2.0236,-10.58323 -3.0826,-10.58323 -3.8082,0 -4.7955,2.31432 -3.8833,9.10338 0.5305,3.94857 3.8138,4.6461 6.9659,1.47985 z m 7.6785,15.06767 c -1.5727,-1.57978 -1.9186,-4.64622 -1.7353,-15.38158 l 0.2289,-13.40842 0.7086,13.44112 c 0.7251,13.7556 1.7973,16.64268 5.8883,15.85535 2.0621,-0.39687 2.3598,-1.95195 2.6755,-13.97734 0.4282,-16.30701 2.7697,-17.22392 2.7697,-1.08457 0,7.87592 -0.5459,11.7302 -1.9458,13.73792 -2.2775,3.26621 -5.8168,3.60307 -8.5899,0.81752 z m 13.3029,-12.78061 0.2672,-14.75375 0.3981,14.05572 0.3981,14.05571 5.2722,0.47867 5.2722,0.47868 -5.9375,0.21935 -5.9375,0.21938 0.2672,-14.75376 z m 12.5057,0 0.3521,-14.75375 4.8126,-0.39719 c 3.172,-0.26181 4.5317,0.0593 3.9887,0.94172 -0.4531,0.73641 -2.1969,1.33893 -3.875,1.33893 -2.8232,0 -3.0513,0.46359 -3.0513,6.20239 l 0,6.2024 4.6875,0.49254 4.6875,0.49254 -4.6875,0.21108 -4.6875,0.21107 0,6.2024 0,6.2024 4.6875,0.49253 c 4.2647,0.44811 4.1484,0.51159 -1.2896,0.70363 l -5.9772,0.21107 0.3522,-14.75376 z m 15.473,12.03479 c -2.2161,-3.17824 -2.692,-6.6509 -0.7459,-5.44268 0.6875,0.42681 1.25,1.83468 1.25,3.12859 0,2.91607 4.4847,4.51452 6.935,2.47177 0.9983,-0.83221 1.815,-3.12453 1.815,-5.09404 0,-2.70634 -0.913,-4.0552 -3.7382,-5.52276 -5.1315,-2.66558 -7.825,-7.10471 -6.8,-11.20703 1.6226,-6.49408 9.5483,-7.27349 11.8598,-1.16629 1.4614,3.86099 1.4627,4.20555 0.015,4.20555 -0.6396,0 -1.3428,-1.27134 -1.5625,-2.82519 -0.3128,-2.21283 -1.2122,-2.82518 -4.1494,-2.82518 -3.4288,0 -3.7831,0.40201 -4.137,4.69324 -0.3523,4.27107 0,4.87976 3.9409,6.76643 2.3804,1.14025 4.9539,3.45326 5.719,5.14003 3.3071,7.29098 -5.9219,14.10271 -10.402,7.67756 z m -275.7459,-24.90508 c 0,-0.6906 0.5625,-1.25564 1.25,-1.25564 0.6875,0 1.25,0.56504 1.25,1.25564 0,0.6906 -0.5625,1.25564 -1.25,1.25564 -0.6875,0 -1.25,-0.56504 -1.25,-1.25564 z M 80.438986,560.10094 c -7.5997,-2.84887 -12.0489,-6.87533 -15.5578,-14.07951 -2.7313,-5.60786 -3.2527,-8.1386 -2.8018,-13.60027 2.1751,-26.34749 34.7885,-34.84317 49.440704,-12.87919 4.7489,7.11858 4.877,7.81036 1.6061,8.66959 -1.8771,0.49308 -3.175,-0.58626 -5.5025,-4.57568 -5.8029,-9.94658 -18.054204,-13.57911 -28.222704,-8.36811 -15.9737,8.18595 -15.9737,29.55325 0,37.73921 9.7496,4.99632 22.591304,1.44201 27.781404,-7.6893 1.9277,-3.39154 3.6342,-4.88573 5.5877,-4.89245 3.6432,-0.0126 3.5513,0.83982 -0.8405,7.79613 -6.5834,10.42788 -20.927904,15.8392 -31.490604,11.87958 z m 60.143604,0.25411 c -11.5639,-3.48307 -19.6429,-15.90794 -18.3741,-28.25767 2.7427,-26.69407 35.7796,-34.79778 49.7608,-12.206 2.4649,3.98286 2.9883,6.49439 2.9883,14.3377 0,8.27985 -0.4459,10.18591 -3.4501,14.74602 -6.5297,9.91148 -19.7043,14.75959 -30.9249,11.37995 z m 16.6222,-6.56823 c 5.4734,-2.29727 11.8228,-9.8331 12.8303,-15.22787 2.4739,-13.24635 -7.9302,-25.76743 -21.4109,-25.76743 -13.2919,0 -23.9672,13.58917 -20.5855,26.20448 3.4416,12.83887 17.1968,19.81445 29.1661,14.79082 z m 43.3778,6.56823 c -2.4062,-0.72477 -6.2083,-2.71519 -8.449,-4.42316 -13.3458,-10.17272 -12.8849,-34.75973 0.8253,-44.03618 25.8542,-17.49308 54.8808,12.86686 37.2379,38.94831 -5.5361,8.18393 -19.3213,12.61125 -29.6142,9.51103 z m 16.6222,-6.56823 c 5.4734,-2.29727 11.8228,-9.8331 12.8303,-15.22787 2.4739,-13.24635 -7.9302,-25.76743 -21.4109,-25.76743 -13.2919,0 -23.9672,13.58917 -20.5855,26.20448 3.4416,12.83887 17.1968,19.81445 29.1661,14.79082 z m 24.6278,-19.64944 0,-27.62406 3.2045,0 c 3.178,0 3.203,0.0803 3.0367,9.7312 -0.092,5.35216 -0.128,10.5676 -0.079,11.58986 0.049,1.02227 5.302,-3.35677 11.6743,-9.7312 9.3856,-9.38882 12.2892,-11.58986 15.289,-11.58986 3.5207,0 3.0897,0.61843 -8.752,12.55836 l -12.455,12.55836 14.9589,15.06569 c 14.1436,14.24451 14.7543,15.0657 11.205,15.0657 -3.0914,0 -5.9516,-2.21597 -16.207,-12.55639 -6.8492,-6.90601 -13.1668,-12.55639 -14.039,-12.55639 -1.1756,0 -1.586,3.24934 -1.586,12.55639 0,12.55639 0,12.55639 -3.125,12.55639 l -3.125,0 0,-27.62405 z m 48.75,24.48495 c 0,-2.75045 0.5417,-3.1391 4.375,-3.1391 l 4.375,0 0,-21.34585 0,-21.34586 -4.375,0 c -3.8333,0 -4.375,-0.38865 -4.375,-3.1391 0,-3.12809 0.042,-3.1391 11.875,-3.1391 11.8334,0 11.875,0.0113 11.875,3.1391 0,2.75045 -0.5416,3.1391 -4.375,3.1391 l -4.375,0 0,21.34586 0,21.34585 4.375,0 c 3.8334,0 4.375,0.38865 4.375,3.1391 0,3.12809 -0.042,3.1391 -11.875,3.1391 -11.8333,0 -11.875,-0.0113 -11.875,-3.1391 z m 30,-24.48495 c 0,-25.94018 0.1396,-27.62406 2.2895,-27.62406 1.9287,0 14.6418,15.49877 34.5035,42.0639 1.6939,2.26563 1.8814,0.33119 1.9173,-19.77631 0.038,-21.43718 0.1351,-22.28759 2.5397,-22.28759 2.4243,0 2.5,0.8371 2.5,27.62406 0,23.43699 -0.2778,27.62405 -1.8331,27.62405 -1.0082,0 -9.305,-9.65841 -18.4375,-21.46313 l -16.6044,-21.4631 -0.342,21.4631 -0.342,21.46313 -3.0955,0 -3.0955,0 0,-27.62405 z m 70.9551,26.44692 c -6.6023,-2.13812 -12.2594,-6.63037 -15.6536,-12.43027 -4.8908,-8.35718 -4.8729,-19.70659 0.044,-28.10922 5.8711,-10.03278 18.3536,-15.33252 29.2016,-12.39829 7.307,1.97644 14.645,7.806 17.7642,14.11251 l 2.7067,5.47233 -2.7808,0.437 c -1.5294,0.24035 -3.0048,-0.23819 -3.2786,-1.0634 -0.9217,-2.77733 -8.0502,-10.15936 -11.5823,-11.99412 -7.6832,-3.99106 -20.2629,-0.86055 -26.0041,6.47122 -8.3077,10.60915 -4.7998,25.64942 7.4459,31.92492 9.0873,4.65694 21.1586,2.03235 27.4315,-5.96428 l 2.7363,-3.48803 -10.7431,-0.36279 c -10.4827,-0.35402 -10.743,-0.43767 -10.743,-3.45301 l 0,-3.09022 13.75,0 13.75,0 -0.021,3.45301 c -0.033,5.50863 -5.1118,13.08476 -11.3829,16.97939 -6.2415,3.87624 -16.5598,5.47278 -22.6414,3.50325 z m -272.8301,-70.80372 c -10.1639,-3.99516 -15.625,-11.97087 -15.625,-22.81988 0,-12.90488 8.4352,-22.56662 21.0076,-24.06234 12.5964,-1.49859 24.7946,7.9175 26.1733,20.20367 0.9311,8.2981 -0.583,14.04626 -5.0443,19.15029 -7.0412,8.05563 -17.5663,11.04437 -26.5116,7.52826 z m 16.4928,-12.66605 c 3.0763,-2.65806 3.5072,-3.90561 3.5072,-10.15383 0,-6.24822 -0.4309,-7.49577 -3.5072,-10.15382 -4.813,-4.15871 -12.3584,-4.15845 -16.4987,5.8e-4 -3.6802,3.69675 -4.907,8.13484 -3.8351,13.874 1.6796,8.99378 13.1649,12.62738 20.3338,6.43306 z m 33.5072,12.63541 c -5.0892,-2.37634 -9.1856,-7.07482 -10.6548,-12.22087 -0.6711,-2.35047 -1.2202,-10.91652 -1.2202,-19.03564 l 0,-14.76204 5.625,0 5.625,0 0,15.75255 c 0,15.05077 0.1367,15.88987 3.0682,18.83458 1.6875,1.69511 4.5256,3.08203 6.3068,3.08203 1.7813,0 4.6194,-1.38692 6.3069,-3.08203 2.9315,-2.94471 3.0681,-3.78381 3.0681,-18.83458 l 0,-15.75255 5.7449,0 5.7449,0 -0.4324,17.4893 c -0.466,18.84973 -1.2104,21.13717 -8.7081,26.76032 -4.1253,3.09385 -15.5271,4.07895 -20.4743,1.76893 z m 252.9534,-1.32046 c -1.1287,-2.48833 -1.0868,-3.62229 0.191,-5.16888 3.5132,-4.25225 10.8793,0.70048 7.9716,5.35987 -2.2316,3.57602 -6.4993,3.47617 -8.1626,-0.19099 z m -346.078404,-8.74987 0,-10.51042 -7.8724,-11.17264 c -4.3298,-6.14496 -8.3005,-11.86847 -8.8238,-12.71891 -0.7045,-1.14511 0.6555,-1.54625 5.2422,-1.54625 6.0511,0 6.2841,0.142 10.1424,6.18168 6.4119,10.03722 6.6703,10.06667 12.512,1.42564 5.1207,-7.57462 5.1692,-7.60732 11.2907,-7.60732 l 6.147904,0 -8.694504,12.63708 -8.6945,12.63707 0,10.59224 0,10.59224 -5.625,0 -5.625,0 0,-10.51041 z M 228.26299,468.84069 c -3.5813,-11.74216 -6.8347,-22.19535 -7.2297,-23.22932 -0.5775,-1.51196 0.4812,-1.87998 5.4081,-1.87998 l 6.1262,0 3.5709,14.70693 3.5708,14.70692 4.1071,-10.62609 c 2.2589,-5.84437 4.1429,-11.33241 4.1867,-12.19566 0.051,-1.00642 2.0584,-1.56955 5.5951,-1.56955 l 5.5156,0 3.8594,10.15239 c 2.1227,5.58382 3.8594,10.66916 3.8594,11.30075 0,0.6316 0.4597,1.14836 1.0215,1.14836 0.5618,0 2.0314,-4.30326 3.2657,-9.56279 4.5056,-19.19777 3.8671,-18.06126 10.1466,-18.06126 3.0614,0 5.5599,0.42377 5.5522,0.94173 -0.01,0.51794 -3.0054,10.82988 -6.6617,22.9154 l -6.6476,21.97368 -5.0881,0.37996 -5.088,0.37995 -4.6979,-14.16233 -4.6979,-14.16232 -4.3835,14.09628 -4.3835,14.09628 -5.1979,0 -5.198,0 -6.5115,-21.34933 z m 57.3684,15.38505 c 1.2697,-3.28037 5.3803,-13.59229 9.1347,-22.91541 l 6.8262,-16.95112 5.3531,0 5.3531,0 7.0228,17.57894 c 3.8625,9.66842 7.9719,19.98034 9.1319,22.91541 l 2.1092,5.33646 -6.1406,0 c -5.8064,0 -6.1853,-0.20495 -6.9642,-3.76692 l -0.8236,-3.76691 -9.7444,0 -9.7445,0 -0.75,3.76691 c -0.7116,3.57406 -1.0654,3.76692 -6.9111,3.76692 l -6.1612,0 2.3086,-5.96428 z m 26.2012,-12.38787 c 0,-1.78125 -4.3994,-13.03882 -5.0955,-13.03882 -0.4173,0 -1.4504,2.31897 -2.2958,5.15325 -0.8453,2.83429 -1.8383,5.94201 -2.2066,6.90602 -0.506,1.32458 0.5846,1.75276 4.4642,1.75276 2.8236,0 5.1337,-0.34795 5.1337,-0.77321 z m 22.5,-4.87717 0,-23.22931 5.3125,0.0126 5.3125,0.0126 9.375,13.21542 9.375,13.21541 0.3548,-13.22734 0.3548,-13.22735 5.5827,0 5.5827,0 0,23.22932 0,23.22932 -5.3125,-0.0114 -5.3125,-0.0113 -9.375,-13.47472 -9.375,-13.47474 -0.3547,13.48561 -0.3548,13.48561 -5.5827,0 -5.5828,0 0,-23.22932 z m 61.25,5.02256 0,-18.20676 -6.875,0 -6.875,0 0,-5.02256 0,-5.02255 19.375,0 19.375,0 0,5.02255 0,5.02256 -6.875,0 -6.875,0 0,18.20676 0,18.20676 -5.625,0 -5.625,0 0,-18.20676 z m -257.0543,-48.98659 c -0.3992,-1.04508 -0.5042,-5.84185 -0.2332,-10.65949 0.2979,-5.29479 -0.017,-8.98414 -0.7974,-9.3277 -0.7267,-0.32017 -0.398,-1.14024 0.7527,-1.87791 1.1235,-0.72023 2.4236,-3.86073 2.8891,-6.97889 0.5582,-3.73943 1.4664,-5.66936 2.6679,-5.66936 1.4231,0 1.7481,1.57926 1.4859,7.21993 -0.1846,3.97095 -0.7709,7.54407 -1.3028,7.94025 -1.2814,0.95434 -3.5308,15.01509 -2.6351,16.47098 1.2591,2.04638 4.1411,-1.63324 4.9584,-6.33064 0.4385,-2.52037 1.4378,-5.16053 2.2206,-5.86705 0.7828,-0.70651 2.0425,-2.40162 2.7993,-3.76691 0.7569,-1.36529 2.8284,-2.65748 4.6034,-2.87151 4.2168,-0.50847 6.3987,3.48062 5.5168,10.08587 -0.6412,4.80164 -0.5926,4.87904 1.7345,2.76349 4.9001,-4.4545 2.1463,0.29664 -3.1488,5.43265 -5.9726,5.79317 -9.8305,6.71215 -12.1971,2.90546 -1.4948,-2.40426 -1.5301,-2.40426 -3.2065,0 -2.0253,2.90453 -5.0989,3.17167 -6.1077,0.53083 z m 15.0761,-2.95457 c 0.3681,-0.5983 -0.4424,-2.09847 -1.8012,-3.33371 -2.4717,-2.2469 -3.1382,-1.29858 -1.7118,2.43538 0.8327,2.17992 2.4673,2.5979 3.513,0.89833 z m 3.7825,-8.95728 c 1.3403,-7.86703 -3.2351,-10.25936 -4.9163,-2.57052 -0.8649,3.95571 1.4179,9.81984 3.1306,8.04179 0.5703,-0.5921 1.3738,-3.05417 1.7857,-5.47127 z m 17.7791,12.97493 c -0.4584,-0.46039 -0.8334,-3.16585 -0.8334,-6.01214 0,-6.86694 4.7181,-16.2507 8.4375,-16.78132 1.6534,-0.23588 2.8686,0.2816 2.9485,1.25564 0.075,0.91128 1.0742,-2.85859 2.2209,-8.37749 1.516,-7.29659 2.6547,-10.1446 4.1732,-10.43837 2.4238,-0.46889 2.2128,2.07524 -1.6713,20.14553 -1.2973,6.03545 -2.34,12.25086 -2.3172,13.81202 l 0.042,2.83849 2.4584,-2.96429 c 1.3522,-1.63037 2.4585,-4.28621 2.4585,-5.90189 0,-1.61568 0.7031,-3.38946 1.5625,-3.94173 0.8593,-0.55227 2.1817,-2.13419 2.9385,-3.51539 0.7569,-1.38121 2.8284,-2.68641 4.6035,-2.90044 4.2167,-0.50847 6.3987,3.48061 5.5167,10.08587 -0.6412,4.80164 -0.5926,4.87904 1.7346,2.76349 1.3168,-1.19707 2.3942,-1.67597 2.3942,-1.06422 0,0.61173 -2.6096,3.55349 -5.7991,6.53721 -6.2999,5.8936 -10.0992,6.51802 -12.3197,2.02481 l -1.3064,-2.64351 -2.2208,2.95741 c -2.6302,3.50273 -5.2582,3.81341 -6.4294,0.76005 -0.8026,-2.09274 -0.9012,-2.09274 -2.0708,0 -1.2212,2.18517 -4.9292,2.95872 -6.5205,1.36027 z m 7.3554,-7.28422 c 2.2184,-5.33331 2.4204,-12.38215 0.3349,-11.68382 -3.172,1.0621 -6.4027,16.03822 -3.4599,16.03822 0.7226,0 2.1289,-1.95949 3.125,-4.3544 z m 18.0612,3.29337 c 0,-0.58357 -1.125,-2.08373 -2.5,-3.33371 -2.4979,-2.27078 -3.1724,-1.33778 -1.7412,2.40858 0.7839,2.05208 4.2412,2.8062 4.2412,0.92513 z m 3.0543,-8.98408 c 1.3403,-7.86703 -3.2351,-10.25936 -4.9163,-2.57052 -0.8649,3.95571 1.4179,9.81984 3.1306,8.04179 0.5703,-0.5921 1.3738,-3.05417 1.7857,-5.47127 z m 16.5291,12.97493 c -1.0635,-1.0683 -0.9535,-10.85079 0.1952,-17.35614 0.612,-3.46597 1.6038,-5.14819 3.2195,-5.46077 1.9051,-0.36853 2.197,0.10109 1.585,2.55022 -1.7381,6.95636 -2.398,17.33687 -1.1021,17.33687 1.5883,0 3.575,-5.94731 4.7188,-14.12594 0.6769,-4.84043 1.3036,-5.96428 3.3259,-5.96428 1.8529,0 2.2781,0.55947 1.6583,2.1819 -1.6381,4.2882 -2.3519,17.90832 -0.9385,17.90832 2.3477,0 3.0584,-2.51232 3.2214,-11.38799 0.1607,-8.75432 2.5746,-13.83327 5.6632,-11.9158 1.8555,1.15195 1.6354,9.06363 -0.4126,14.82823 -1.3266,3.7341 -1.347,4.70864 -0.098,4.70864 2.9561,0 4.5451,-3.59402 7.0406,-15.92385 2.7409,-13.54188 4.8677,-17.97839 8.619,-17.97839 3.7514,0 3.1662,5.94138 -1.2788,12.98199 -3.901,6.1789 -4.8278,8.69309 -2.25,6.10372 2.1049,-2.11438 5.9373,-1.87622 6.8159,0.42354 0.4055,1.06167 -0.2179,5.35016 -1.3854,9.52998 -1.1676,4.17982 -1.8119,7.912 -1.4319,8.29373 1.501,1.50777 4.5654,-2.78621 6.5879,-9.23136 2.802,-8.92875 7.5619,-14.14165 9.716,-10.64054 0.385,0.62577 1.8234,0.84264 3.1965,0.48196 2.1639,-0.56841 2.4087,-0.1762 1.8374,2.94306 -3.2168,17.56169 -3.2079,19.5719 0.067,15.07331 2.7984,-3.84438 4.7228,-14.84646 2.8179,-16.11112 -1.2454,-0.82684 -1.1473,-1.32629 0.4467,-2.27333 1.1453,-0.68048 2.4145,-3.70426 2.8891,-6.88303 0.5667,-3.79634 1.4598,-5.66936 2.7033,-5.66936 1.4703,0 1.7797,1.50322 1.4859,7.21993 -0.2041,3.97095 -0.8063,7.54407 -1.3382,7.94025 -1.5373,1.14498 -3.4908,15.39407 -2.2776,16.6128 1.3993,1.40554 2.6413,-0.53742 5.7524,-8.99815 1.4537,-3.95372 3.9547,-7.90509 5.9511,-9.4023 3.2311,-2.42324 3.5736,-2.45183 5.5531,-0.46344 2.8609,2.87385 0.9829,8.1219 -4.1497,11.59638 -3.2072,2.1711 -3.6779,3.08981 -2.8019,5.46854 2.4317,6.60316 9.4208,-0.52095 10.6378,-10.84333 0.4639,-3.93417 1.3912,-6.57429 2.3091,-6.57429 1.1256,0 1.3673,2.34048 0.908,8.78947 -0.4335,6.08623 -0.19,8.78947 0.7919,8.78947 1.6387,0 1.5533,0.45249 1.83,-9.68713 0.2275,-8.33756 2.6774,-12.66387 6.366,-11.24201 2.5126,0.96852 2.5466,6.42098 0.084,13.4333 -1.0386,2.95697 -1.5813,5.68472 -1.206,6.06169 1.0608,1.06564 6.0852,-5.05979 7.4728,-9.11051 0.6856,-2.00127 2.7675,-4.77604 4.6263,-6.16616 2.8017,-2.09518 3.7104,-2.25189 5.3125,-0.91625 3.1041,2.58778 2.2524,6.35475 -2.4422,10.80238 -4.6724,4.42646 -5.574,7.697 -2.4535,8.89985 4.793,1.84752 9.596,-8.06033 9.8322,-20.28192 0.091,-4.68937 0.5958,-6.27819 1.9963,-6.27819 1.3607,0 1.875,1.40713 1.875,5.13036 0,2.8217 0.7731,6.07206 1.7181,7.22303 1.6337,1.98988 1.5138,4.41818 -0.5838,11.81765 -1.3255,4.67569 1.9244,3.29113 4.0027,-1.70527 1.0364,-2.49174 2.1657,-4.24792 2.5094,-3.90262 0.9707,0.97506 -2.6436,8.86051 -4.9369,10.77093 -1.129,0.94051 -2.9756,1.35427 -4.1036,0.91948 -2.0674,-0.79692 -2.0381,-2.08168 0.2813,-12.36071 1.2263,-5.43449 -1.731,-4.14287 -3.2183,1.40562 -3.098,11.55703 -11.0727,15.05331 -15.2357,6.67973 -1.1551,-2.32327 -2.4283,-3.56956 -2.8863,-2.82519 -0.4507,0.73256 -1.971,1.33194 -3.3783,1.33194 -1.4074,0 -3.665,1.4126 -5.017,3.1391 -3.3101,4.22709 -4.5108,3.95572 -5.4809,-1.23869 l -0.8176,-4.37778 -2.717,4.06387 c -3.4225,5.11934 -8.4331,6.03448 -11.2128,2.04793 l -1.9434,-2.78712 -2.3578,2.92483 c -2.7985,3.47151 -6.4972,2.67978 -6.4972,-1.39078 0,-2.60034 -0.114,-2.57445 -2.5907,0.5884 -2.9153,3.72295 -6.1593,4.37096 -6.1593,1.23036 0,-1.93365 -0.1588,-1.93365 -2.2859,0 -3.1768,2.88796 -6.3547,2.59376 -7.5679,-0.70059 l -1.0233,-2.77866 -1.521,2.85485 c -1.0098,1.89533 -2.4379,2.72376 -4.249,2.46476 -3.5525,-0.50803 -4.1026,-5.08776 -1.6198,-13.48597 1.4911,-5.04386 1.5483,-6.36653 0.2752,-6.36653 -2.0845,0 -3.8698,4.04623 -5.7065,12.93382 -0.9659,4.67331 -2.0989,7.1564 -3.2654,7.1564 -1.0721,0 -1.7864,-1.2551 -1.7864,-3.1391 0,-2.35472 -0.6578,-3.1391 -2.6326,-3.1391 -1.4479,0 -3.7387,1.4126 -5.0907,3.1391 -2.996,3.82592 -7.2538,4.12614 -8.1778,0.57663 l -0.6671,-2.56248 -1.7868,2.56248 c -1.7892,2.56603 -4.2481,3.29601 -5.8116,1.72537 z m 50.1414,-4.49937 c 2.1855,-2.67818 4.2108,-12.13247 3.0466,-14.22216 -1.4597,-2.62005 -3.3003,-0.33487 -5.1344,6.37442 -2.2923,8.38532 -1.3233,12.02766 2.0878,7.84774 z m -29.7811,-17.20225 c 0.097,-5.27864 -2.5837,-0.95489 -3.1751,5.12165 l -0.5341,5.4885 1.8264,-3.76692 c 1.0045,-2.0718 1.8518,-5.15126 1.8828,-6.84323 z m 60.0563,3.50952 c 0,-3.39245 -2.3691,-2.8259 -3.7809,0.90418 -1.8797,4.96623 -1.4591,6.1761 1.2809,3.68517 1.375,-1.24997 2.5,-3.31518 2.5,-4.58935 z m 32.5,0 c 0,-3.31741 -1.8536,-2.85705 -3.5493,0.88151 -2.1715,4.78749 -1.7555,6.25761 1.0493,3.70784 1.375,-1.24997 2.5,-3.31518 2.5,-4.58935 z m -16.6668,-1.79722 c 1.0038,-6.64445 -1.5763,-4.19772 -2.7625,2.61965 -0.6577,3.77981 -0.5158,4.68505 0.5731,3.65854 0.7959,-0.75021 1.7811,-3.57539 2.1894,-6.27819 z m -60.1208,-13.70365 c 1.1779,-4.98931 -0.4586,-3.38337 -1.9791,1.94214 -0.6864,2.40415 -0.7075,3.67136 -0.05,2.99573 0.6268,-0.64403 1.5399,-2.86607 2.029,-4.93787 z M 75.825886,411.40419 c 7.3525,-0.22161 19.7275,-0.22238 27.500004,-0.001 7.7724,0.22066 1.7567,0.40197 -13.368304,0.40292 -15.125,9.5e-4 -21.4843,-0.17958 -14.1317,-0.40119 z m 306.250004,0 c 7.3525,-0.22161 19.7275,-0.22238 27.5,-0.001 7.7724,0.22066 1.7567,0.40197 -13.3683,0.40292 -15.125,9.5e-4 -21.4843,-0.17958 -14.1317,-0.40119 z M 75.825886,407.63728 c 7.3525,-0.22162 19.7275,-0.22239 27.500004,-0.001 7.7724,0.22066 1.7567,0.40198 -13.368304,0.40292 -15.125,9.6e-4 -21.4843,-0.17957 -14.1317,-0.40119 z m 306.250004,0 c 7.3525,-0.22162 19.7275,-0.22239 27.5,-0.001 7.7724,0.22066 1.7567,0.40198 -13.3683,0.40292 -15.125,9.6e-4 -21.4843,-0.17957 -14.1317,-0.40119 z m -318.993304,-46.77801 0,-15.06766 7.8125,0.0185 c 4.2969,0.01 9.1646,0.71649 10.817,1.56955 4.7888,2.47213 8.1887,8.03447 8.1887,13.3967 0,10.27346 -6.179,15.15063 -19.1946,15.15063 l -7.6236,-3e-5 0,-15.06767 z m 17.5,6.27819 c 5.6722,-5.69777 1.397,-15.06766 -6.875,-15.06766 l -4.375,0 0,8.78947 0,8.78947 4.375,0 c 2.7084,0 5.3274,-0.95667 6.875,-2.51128 z m 21.735204,7.55886 c -3.504004,-1.42216 -7.624504,-6.81798 -8.594604,-11.25466 -1.678,-7.67446 6.319304,-17.63282 14.170504,-17.64535 7.678,-0.0123 15.1889,7.4364 15.1889,15.06296 0,10.19468 -11.2569,17.69599 -20.7648,13.83705 z m 11.7023,-8.55345 c 3.2053,-4.09586 1.5709,-11.14335 -2.9879,-12.88443 -6.2958,-2.40445 -11.776004,3.3768 -9.9872,10.53587 1.3723,5.4926 9.3804,6.94209 12.9751,2.34856 z m 14.0625,-5.2836 c 0,-14.94713 0.023,-15.06766 2.9161,-15.06766 2.1806,0 4.545,2.26427 9.375,8.9779 l 6.4589,8.97791 0,-8.97791 c 0,-8.73933 0.083,-8.9779 3.125,-8.9779 l 3.125,0 0,15.06766 c 0,14.94713 -0.023,15.06767 -2.916,15.06767 -2.1806,0 -4.545,-2.26428 -9.375,-8.97791 l -6.459,-8.97791 0,8.97791 c 0,8.73933 -0.083,8.97791 -3.125,8.97791 l -3.125,0 0,-15.06767 z m 50.9845,3.45301 -0.3595,-11.61466 -4.0625,-0.39347 c -3.3646,-0.32587 -4.0625,-0.91902 -4.0625,-3.453 0,-3.02759 0.124,-3.05954 11.875,-3.05954 11.8334,0 11.875,0.0113 11.875,3.13909 0,2.75045 -0.5416,3.1391 -4.375,3.1391 l -4.375,0 0,11.92857 c 0,11.83823 -0.023,11.92857 -3.078,11.92857 -3.0231,0 -3.0846,-0.20773 -3.4375,-11.61466 z m 30.2655,-3.45301 0,-15.06766 7.2219,0 c 9.176,0 12.7781,2.29993 12.7781,8.15874 0,2.33719 -0.5572,4.59537 -1.2382,5.01817 -0.7347,0.45608 -0.2021,2.1765 1.3094,4.23016 2.0522,2.78824 2.3046,4.10348 1.2981,6.76286 -1.7292,4.56856 -4.9575,5.9654 -13.7871,5.9654 l -7.5822,0 0,-15.06767 z m 14.375,5.65037 c 0,-1.91543 -0.9639,-2.60463 -4.0625,-2.90474 -3.6516,-0.35368 -4.0625,-0.0599 -4.0625,2.90474 0,2.96468 0.4109,3.25843 4.0625,2.90475 3.0986,-0.30011 4.0625,-0.98931 4.0625,-2.90475 z m -1.25,-11.30074 c 0,-1.80616 -0.9651,-2.62283 -3.4375,-2.9086 -2.9797,-0.3444 -3.4375,0.043 -3.4375,2.9086 0,2.86567 0.4578,3.25299 3.4375,2.90859 2.4724,-0.28577 3.4375,-1.10243 3.4375,-2.90859 z m 14.375,5.65037 0,-15.06766 10,0 c 9.8334,0 10,0.0523 10,3.13909 0,2.96788 -0.375,3.1391 -6.875,3.1391 -6.5,0 -6.875,0.17122 -6.875,3.1391 0,2.89039 0.4526,3.13909 5.712,3.13909 5.2085,0 5.6767,0.24901 5.3125,2.82519 -0.3321,2.34858 -1.2957,2.89032 -5.712,3.21129 -4.2948,0.31214 -5.3125,0.85333 -5.3125,2.82519 0,2.11938 0.9012,2.43908 6.875,2.43908 6.5,0 6.875,0.17122 6.875,3.1391 0,3.08677 -0.1666,3.1391 -10,3.1391 l -10,0 0,-15.06767 z m 33.9613,14.12594 c 0.2307,-0.51796 2.8947,-7.29841 5.92,-15.06767 5.0483,-12.96441 5.7675,-14.12499 8.7472,-14.11448 2.9912,0.01 3.701,1.19557 9.0246,15.06766 l 5.778,15.05622 -3.7075,0 c -2.6564,0 -3.893,-0.71206 -4.3614,-2.51128 -0.5396,-2.07274 -1.705,-2.51128 -6.6737,-2.51128 -4.9222,0 -6.1647,0.45797 -6.8135,2.51128 -0.5624,1.77998 -1.8912,2.51128 -4.5634,2.51128 -2.0734,0 -3.5811,-0.42379 -3.3503,-0.94173 z m 16.7108,-13.81203 c -1.3399,-5.45 -2.6245,-5.7558 -4.0859,-0.97268 -1.2987,4.25066 -1.2278,4.42569 1.7914,4.42569 2.8017,0 3.0512,-0.3754 2.2945,-3.45301 z m 15.3571,12.72142 c -0.2223,-1.11779 -0.2273,-7.89823 -0.011,-15.06767 l 0.3929,-13.03532 9.9196,0 c 9.7476,0 9.9196,0.0545 9.9196,3.13909 0,2.96788 -0.375,3.1391 -6.875,3.1391 -6.8056,0 -6.875,0.0381 -6.875,3.76692 0,3.55763 0.2778,3.76691 5,3.76691 4.5,0 5,0.31391 5,3.1391 0,2.82519 -0.5,3.1391 -5,3.1391 -5,0 -5,0 -5,5.02255 0,4.47983 -0.3278,5.02256 -3.0334,5.02256 -1.7952,0 -3.1983,-0.82952 -3.4375,-2.03234 z m 25.2208,-13.03533 0,-15.06766 7.3315,0 c 13.6091,0 18.6753,8.57207 11.2192,18.98318 -1.1607,1.62075 -0.9083,2.80366 1.247,5.84421 3.4659,4.88931 3.4073,5.31113 -0.7352,5.2924 -2.5442,-0.0114 -4.1713,-1.15356 -6.2614,-4.39474 -3.7297,-5.78354 -6.5511,-5.77684 -6.5511,0.0156 0,3.85063 -0.3869,4.39474 -3.125,4.39474 l -3.125,0 0,-15.06767 z m 14.375,-4.39473 c 0,-3.33206 -0.4689,-3.81236 -4.0625,-4.16039 -3.9085,-0.37855 -4.0625,-0.2209 -4.0625,4.16039 0,4.38128 0.154,4.53893 4.0625,4.16038 3.5936,-0.34803 4.0625,-0.82833 4.0625,-4.16038 z m 11.706,13.49811 c 9.7968,-25.46584 9.1244,-24.17107 12.554,-24.1706 2.9789,4e-4 3.6695,1.13908 8.5681,14.12593 2.9305,7.76903 5.3211,14.54928 5.3125,15.06723 -0.01,0.51794 -1.4745,0.94173 -3.2576,0.94173 -2.1908,0 -3.454,-0.81431 -3.8958,-2.51128 -0.5396,-2.07274 -1.705,-2.51128 -6.6737,-2.51128 -4.9222,0 -6.1647,0.45797 -6.8135,2.51128 -0.5546,1.75544 -1.8912,2.51128 -4.441,2.51128 l -3.6475,0 2.2945,-5.96429 z m 14.5911,-8.78947 c -1.3399,-5.45 -2.6245,-5.7558 -4.0859,-0.97268 -1.2987,4.25066 -1.2278,4.42569 1.7914,4.42569 2.8017,0 3.0512,-0.3754 2.2945,-3.45301 z m 16.6196,13.52363 c -0.2292,-0.67658 -0.2409,-7.45703 -0.026,-15.06766 0.3872,-13.72125 0.4161,-13.83754 3.4375,-13.83754 l 3.047,0 0,15.06766 0,15.06767 -3.0208,0 c -1.6615,0 -3.2083,-0.55356 -3.4375,-1.23013 z m 12.7083,-13.83754 0,-15.06766 7.8125,0.0185 c 4.2969,0.01 9.1646,0.71649 10.817,1.56955 4.7888,2.47213 8.1887,8.03447 8.1887,13.3967 0,10.27341 -6.179,15.15058 -19.1946,15.15058 l -7.6236,2e-5 0,-15.06767 z m 17.5,6.27819 c 5.63,-5.65533 1.1881,-15.06766 -7.1107,-15.06766 l -4.1393,0 0,8.78947 0,8.78947 4.375,0 c 2.7084,0 5.3274,-0.95667 6.875,-2.51128 z m -255,-16.95112 c 0,-3.85063 0.3869,-4.39473 3.125,-4.39473 2.7381,0 3.125,0.5441 3.125,4.39473 0,3.85063 -0.3869,4.39474 -3.125,4.39474 -2.7381,0 -3.125,-0.54411 -3.125,-4.39474 z m 82.544,-54.53774 c -2.0344,-3.81858 -1.5172,-4.40461 1.0628,-1.2041 2.0204,2.50639 2.6447,2.68347 4.375,1.24099 2.6667,-2.22317 2.5523,-5.4569 -0.3191,-9.01891 l -2.3373,-2.89951 -4.0796,3.44824 c -9.2825,7.84598 -23.1567,11.41023 -35.4199,9.09926 -5.5344,-1.04295 -12.0759,-7.02926 -12.0759,-11.05108 0,-1.81978 -1.7782,-4.7338 -4.4816,-7.34397 -8.04,-7.76276 -10.1659,-15.97565 -6.1532,-23.77042 1.7679,-3.43419 1.7198,-3.66941 -0.9222,-4.51176 -1.5331,-0.48877 -5.6985,-0.88867 -9.2564,-0.88867 -11.9375,0 -20.4366,8.04112 -20.4366,19.33533 0,5.03345 0.682,6.82931 4.0625,10.69841 2.767,3.16687 3.2609,4.21893 1.5486,3.29909 -5.8775,-3.15736 -7.4861,-6.47601 -7.4861,-15.44451 0,-7.7466 0.3495,-8.94155 3.6162,-12.36663 1.9888,-2.0853 5.4488,-4.66506 7.6889,-5.73283 4.6736,-2.22777 15.0531,-2.55402 20.0872,-0.6314 2.818,1.07622 3.8482,0.89002 5.7729,-1.04335 2.2903,-2.30067 2.1982,-2.40021 -4.1173,-4.44908 -9.348,-3.03269 -19.2127,-2.69568 -26.9441,0.9205 -15.0547,7.04144 -19.6392,25.00116 -9.5524,37.42101 2.953,3.63602 3.0034,3.83332 0.4156,1.62664 -4.0637,-3.46515 -7.5371,-11.56624 -7.5371,-17.57894 0,-10.2782 8.0024,-21.06207 18.2754,-24.62764 7.1293,-2.47445 19.8752,-1.94189 27.7865,1.16101 5.232,2.05203 7.3079,2.33985 9.2697,1.28522 3.0085,-1.61738 15.8654,-0.68345 19.1807,1.39329 2.0006,1.25318 1.8918,1.32599 -0.8172,0.54698 -4.3257,-1.24394 -14.9743,-1.00488 -16.3399,0.36683 -0.6674,0.67046 2.3292,3.7277 7.3624,7.51126 8.4149,6.32567 8.5124,6.36075 11.322,4.07545 7.3753,-5.99911 17.387,-3.29808 25.9594,7.00354 l 4.6967,5.64415 2.8961,-2.73298 2.896,-2.73297 -4.3219,-4.46962 c -6.8629,-7.09749 -8.2405,-14.16999 -3.0804,-15.81512 3.3664,-1.07329 6.1498,1.52799 5.9224,5.53494 l -0.1873,3.29927 -0.528,-3.52845 c -0.4168,-2.78529 -1.1014,-3.44644 -3.2502,-3.1391 -4.2864,0.61307 -4.1079,5.34145 0.4183,11.08198 2.1695,2.75157 4.5192,5.00286 5.2215,5.00286 0.7024,0 2.9837,-1.4425 5.0695,-3.20554 2.0859,-1.76306 5.4015,-3.5288 7.368,-3.92388 1.9665,-0.39508 3.5841,-1.35399 3.5946,-2.13091 0.011,-0.78877 0.5116,-0.63112 1.1343,0.357 0.6134,0.97327 0.8078,2.5745 0.4319,3.55828 -0.4819,1.26156 -0.9432,1.36617 -1.5654,0.35497 -1.2621,-2.05133 -6.4992,-0.42492 -10.4344,3.24046 -4.1634,3.87797 -4.1508,4.37179 0.2115,8.27609 3.321,2.97238 3.7701,3.05722 7.0491,1.33147 2.7204,-1.4318 3.1144,-2.08977 1.7654,-2.94789 -1.2579,-0.80022 -0.8356,-1.10997 1.5324,-1.12391 1.7979,-0.01 4.7722,-1.20704 6.6095,-2.65882 2.8459,-2.24866 3.1023,-2.94599 1.7311,-4.70864 -1.4334,-1.84263 -1.3726,-1.88247 0.556,-0.36409 1.9012,1.49692 2.8927,1.1028 8.125,-3.22974 3.2777,-2.71409 7.2664,-5.82373 8.8637,-6.91033 4.0065,-2.72536 1.6559,-3.89688 -7.7955,-3.88525 -5.3042,0.006 -6.6622,-0.27511 -4.4838,-0.92989 4.6231,-1.38955 11.889,-1.3608 15.6139,0.0618 2.4082,0.91972 4.1827,0.78074 6.6953,-0.52441 11.4081,-5.926 28.0127,-5.11381 37.5655,1.83742 10.1425,7.38034 13.4821,21.85733 7.506,32.53829 -1.5539,2.7773 -3.0368,4.83718 -3.2953,4.57748 -0.2586,-0.25968 0.6831,-2.37225 2.0926,-4.69459 3.5759,-5.89187 3.434,-15.37224 -0.3375,-22.54561 -6.0389,-11.486 -21.8202,-16.50791 -37.4932,-11.93107 -7.4066,2.16286 -8.3323,3.17657 -5.2484,5.74752 1.4009,1.16785 2.8092,1.20511 5.8116,0.15375 5.9039,-2.06742 14.806,-1.63291 20.5882,1.00491 9.8989,4.51582 14.3441,16.22435 9.8065,25.82983 -2.0359,4.30976 -8.1105,9.43742 -11.1802,9.43742 -0.6875,0 0.5509,-1.10298 2.7519,-2.45106 7.2677,-4.45141 9.7375,-13.22826 6.1496,-21.85402 -2.2884,-5.50173 -6.9775,-9.02429 -14.3907,-10.81071 -7.8833,-1.89971 -17.0929,0.14703 -15.735,3.49695 4.3055,10.62175 3.374,16.35068 -3.8366,23.59376 -2.9305,2.94369 -5.6917,7.01481 -6.136,9.04691 -1.653,7.55995 -8.6841,11.54395 -20.3733,11.54395 -11.0248,0 -18.7171,-2.67426 -25.8605,-8.9905 -5.6379,-4.98503 -7.3244,-5.20846 -3.7796,-0.50072 3.4928,4.6387 1.5769,10.74685 -3.3708,10.74685 -1.2133,0 -2.7883,-1.09293 -3.5,-2.42873 z m -11.163,-3.63348 c 3.0217,-1.48272 7.1815,-4.07698 9.244,-5.76501 3.5205,-2.88129 3.6214,-3.2009 1.6477,-5.22181 -1.9832,-2.03056 -2.3254,-1.96417 -6.0339,1.17036 -4.5277,3.82699 -8.1956,4.99745 -13.2752,4.23628 -2.7272,-0.40864 -2.3238,-0.58288 1.6804,-0.72586 3.967,-0.14164 6.3798,-1.16779 9.7641,-4.15265 l 4.4951,-3.9645 -2.8891,-2.77918 c -1.9621,-1.88746 -3.5241,-2.45014 -4.8682,-1.75369 -1.3326,0.69046 -1.9792,0.47143 -1.9792,-0.67043 0,-0.96716 0.8505,-1.43353 1.9792,-1.08531 1.41,0.43503 1.2814,0.0396 -0.4473,-1.37535 -2.79,-2.28359 -4.9987,-2.64027 -3.7465,-0.60505 0.5927,0.96325 0.042,0.94688 -1.8198,-0.0541 -2.1763,-1.17002 -2.812,-1.06161 -3.4418,0.58695 -0.887,2.32209 0.3589,3.83636 3.9345,4.7817 1.4939,0.39498 0.9909,0.57034 -1.25,0.43579 -3.36,-0.20177 -3.7572,-0.66246 -3.8198,-4.43063 -0.049,-2.92624 -0.9991,-4.92294 -3.125,-6.5642 -3.8895,-3.00283 -4.581,-2.98646 -5.5662,0.13183 -0.5632,1.78225 0.068,3.29485 2.1032,5.04067 l 2.9078,2.49431 -4.0644,-2.2155 c -2.7376,-1.49224 -3.8135,-2.83036 -3.2957,-4.09895 2.2519,-5.51717 1.9364,-6.07081 -7.0886,-12.43744 -7.0069,-4.9429 -9.437,-6.07039 -10.741,-4.98332 -0.9269,0.77272 -1.6853,1.77938 -1.6853,2.23703 0,0.45765 4.2246,3.86701 9.388,7.57636 5.1634,3.70935 9.1601,6.97313 8.8816,7.25285 -0.2784,0.27972 -4.4083,-2.35128 -9.1774,-5.84664 -4.7691,-3.49539 -9.3423,-6.35524 -10.1626,-6.35524 -2.1045,0 -3.9296,5.49175 -3.9296,11.82462 0,6.15299 4.5264,14.02255 7.9038,13.74158 1.1529,-0.0959 2.0962,0.34089 2.0962,0.97067 0,0.62979 1.4114,0.21615 3.1364,-0.91922 8.2463,-5.42754 17.9963,-5.89533 19.8839,-0.95399 1.0413,2.72572 -1.4641,6.72731 -4.212,6.72731 -1.2946,0 -3.3842,0.29105 -4.6435,0.64675 -1.2594,0.35571 -0.7296,-0.10182 1.1773,-1.01671 1.9068,-0.91491 3.0318,-2.14409 2.5,-2.73153 -0.5319,-0.58743 -0.3028,-0.68572 0.5091,-0.21843 1.9306,1.11122 3.0194,-0.73064 1.6997,-2.87554 -0.5772,-0.93823 -3.1838,-1.68082 -5.8999,-1.68082 -5.6944,0 -13.3861,3.56073 -12.1237,5.61249 0.5205,0.84593 0.2903,1.04309 -0.5841,0.50023 -1.8422,-1.14369 -1.8983,2.33005 -0.092,5.71977 0.743,1.39452 3.6961,3.6406 6.5625,4.99132 6.9026,3.25266 20.5698,2.67763 28.4676,-1.19772 z m 56.3512,2.25156 c 4.7288,-1.31932 11.0178,-7.48377 11.0178,-10.79963 0,-1.02367 -0.4687,-1.57022 -1.0416,-1.21454 -0.5729,0.35568 -1.0417,-0.14462 -1.0417,-1.11177 0,-0.96716 0.3281,-1.67791 0.7292,-1.57946 4.34,1.06552 11.3541,-8.23542 11.3541,-15.05587 0,-5.15147 -2.4181,-11.63107 -4.3406,-11.63107 -0.8778,0 -5.8853,3.14653 -11.1277,6.99227 -7.9576,5.83755 -9.5317,7.5742 -9.5317,10.51597 0,2.83561 0.6713,3.66173 3.4375,4.23052 1.8907,0.38875 4.5625,1.58448 5.9375,2.6572 2.2682,1.76951 1.9928,1.77675 -2.9696,0.0779 -6.8162,-2.3334 -6.0172,-2.5018 -8.1941,1.72689 -1.7406,3.38116 -1.6887,3.67293 0.8569,4.8139 2.4031,1.07714 2.2201,1.22035 -1.6167,1.2656 -2.3796,0.0281 -6.6467,0.78486 -9.4825,1.68174 -6.7299,2.12851 -10.4241,0.61368 -19.1017,-7.83275 l -6.5693,-6.39423 -2.6086,2.62039 c -2.1693,2.17907 -2.3389,2.94678 -1.0073,4.55847 1.5537,1.88062 4.4546,1.50516 3.2683,-0.42302 -0.3247,-0.52778 0.1982,-0.95961 1.1621,-0.95961 1.3514,0 1.4533,0.56156 0.4453,2.45354 -0.752,1.41151 -0.7943,2.13512 -0.1,1.7038 0.6642,-0.41235 2.2302,0.38525 3.48,1.77247 7.9863,8.86461 24.7543,13.35997 37.0439,9.93122 z m -14.8446,-9.91069 c 2.437,-0.93074 2.9248,-1.82437 2.4261,-4.44493 -0.5271,-2.76983 -0.017,-3.51028 3.2811,-4.76069 2.8814,-1.09254 3.9052,-2.27185 3.9052,-4.4983 0,-2.67635 -0.2391,-2.8227 -2.1149,-1.29426 -1.1632,0.94781 -1.7358,1.0874 -1.2725,0.3102 0.8117,-1.36152 19.002,-15.51742 23.2083,-18.06096 1.8757,-1.13423 1.8505,-1.40062 -0.2903,-3.06628 -2.1209,-1.65025 -3.0145,-1.36301 -9.375,3.01326 -3.8668,2.66059 -8.1556,5.91074 -9.5306,7.22258 -1.375,1.31184 -4.3305,3.46896 -6.5679,4.79361 -3.6153,2.14046 -3.9835,2.86071 -3.3089,6.47287 0.6701,3.58841 0.3885,4.15783 -2.4044,4.86195 -4.5593,1.14951 -7.7619,-0.233 -12.6868,-5.47669 l -4.341,-4.62194 -2.7029,2.7151 -2.7029,2.71507 5.4824,5.92448 c 5.0583,5.46616 10.844,9.19063 14.4636,9.31074 0.8146,0.027 2.8537,-0.47509 4.5314,-1.11581 z m -16.9709,-10.2916 c 0.8479,-0.85813 1.8566,-1.24393 2.2414,-0.85733 0.3849,0.38659 -0.3089,1.0887 -1.5416,1.56024 -1.7815,0.68141 -1.9251,0.53718 -0.6998,-0.70291 z m 24.7786,2.94693 c -1.0432,-1.04793 -3.1945,1.16589 -3.1555,3.24727 0.035,1.86419 0.2621,1.82802 1.8621,-0.29636 1.0023,-1.33078 1.5843,-2.6587 1.2934,-2.95091 z m -37.9397,-3.65122 c 2.2431,-2.0392 2.09,-2.35715 -4.2339,-8.78948 -6.8689,-6.98669 -8.5217,-7.91573 -8.5217,-4.79027 0,2.62359 -4.5492,2.36701 -5.5653,-0.31391 -0.6677,-1.76185 -0.5208,-1.88628 0.7413,-0.62782 2.1143,2.10822 3.574,1.98001 3.574,-0.31391 0,-2.47742 -8.5954,-2.56418 -11.9225,-0.12041 -2.3348,1.71498 -2.3158,1.83378 0.6986,4.35296 1.7044,1.42442 4.5795,2.60865 6.389,2.63163 1.9316,0.0245 5.8022,2.09691 9.375,5.01952 3.3467,2.73777 6.3219,4.99791 6.6115,5.02256 0.2896,0.0246 1.5739,-0.90727 2.854,-2.07093 z m 28.2689,-2.60575 c 0.4773,-3.36086 -0.1221,-3.46415 -4.268,-0.73538 -2.3901,1.57309 -2.7585,2.33424 -1.5185,3.13751 2.6673,1.72799 5.3586,0.61075 5.7865,-2.40213 z m -7.6911,-9.92764 c -1.6621,-1.6696 -0.7854,-3.19736 0.9869,-1.71982 1.0011,0.83461 2.4943,1.09901 3.3181,0.58755 0.9476,-0.58827 1.1702,-0.39735 0.606,0.51972 -0.9816,1.59548 -3.6066,1.92289 -4.911,0.61255 z m -1.9174,-20.61488 c -3.0025,-3.44919 -7.5344,-7.33475 -10.0708,-8.63461 -4.3448,-2.22655 -4.8609,-2.24366 -8.916,-0.29574 -2.3673,1.13719 -7.0964,4.90693 -10.5092,8.37722 l -6.2051,6.30963 4.304,-6.06857 c 2.3672,-3.33771 6.9861,-8.0463 10.2643,-10.4635 l 5.9602,-4.39494 4.2267,2.62407 c 4.6199,2.86809 13.4076,11.9668 15.6834,16.23831 2.0611,3.86857 1.3854,3.34198 -4.7375,-3.69187 z M 38.704386,209.88833 c -10.3107,-13.28328 -22.5191,-29.02627 -27.1297,-34.98442 l -8.3828996,-10.83298 5.5768,-4.02299 c 4.1194996,-2.97171 6.3099996,-3.79269 8.3828996,-3.14173 4.5601,1.43205 29.474,13.69145 40.7365,20.04524 8.652,4.88111 10.1803,5.41517 8.9642,3.13252 -0.8064,-1.51348 -6.7855,-11.59827 -13.287,-22.41062 -10.7762,-17.92162 -11.6301,-19.7989 -9.6628,-21.24394 1.187,-0.87181 2.4724,-1.56928 2.8567,-1.54991 0.3842,0.0193 7.6104,12.04108 16.0583,26.71496 8.4478,14.67386 16.8265,29.15063 18.6193,32.1706 1.7928,3.01996 2.5037,5.02149 1.5797,4.44785 -22.8048,-14.15771 -57.2036,-32.51773 -67.7936,-36.18413 -6.1158996,-2.11741 -1.9862,4.84702 21.0331,35.47125 22.5035,29.93805 26.5099,36.53973 22.1753,36.53973 -0.539,0 -9.416,-10.86815 -19.7268,-24.15143 z m 4.3817,-9.28192 c -11.3418,-15.54236 -21.0768,-29.07609 -21.6333,-30.07497 -2.1439,-3.8483 32.0409,13.47488 54.2819,27.50739 13.0331,8.22295 16.9834,9.93127 15.7414,6.80733 -0.3433,-0.86326 -9.6589,-17.3906 -20.7014,-36.72743 -17.9332,-31.40337 -19.8576,-35.3255 -18.0207,-36.72744 1.131,-0.86325 2.4108,-1.56955 2.8438,-1.56955 0.433,0 3.333,4.66156 6.4442,10.35902 3.1113,5.69746 12.4933,22.87334 20.8488,38.16864 8.3555,15.29528 15.1918,28.09407 15.1918,28.44175 0,0.34768 -1.9497,1.78771 -4.3327,3.20006 l -4.3328,2.56793 -12.8547,-8.10935 c -12.9317,-8.15789 -37.1002,-21.21352 -37.8182,-20.42911 -0.2122,0.23174 6.2587,9.73917 14.3798,21.12762 10.9456,15.34952 14.4275,21.11535 13.459,22.28758 -0.7186,0.86973 -1.6595,1.54713 -2.0909,1.50533 -0.4315,-0.0418 -10.0641,-12.79244 -21.406,-28.3348 z m 380.293504,25.7596 c -7.2366,-3.59825 -14.889,-12.55318 -15.9089,-18.61685 -1.7128,-10.18378 6.2513,-27.49538 9.9119,-21.54562 0.3836,0.62352 -0.7027,4.15501 -2.414,7.84774 -4.7281,10.20221 -4.0434,16.11085 2.6546,22.90793 9.1967,9.33276 20.6286,10.27856 29.2849,2.42287 8.7357,-7.92785 9.0789,-16.61954 1.1115,-28.15283 -2.1018,-3.04236 -5.2813,-7.66436 -7.0656,-10.2711 -2.0012,-2.9235 -3.4691,-7.09065 -3.8312,-10.87565 -0.5496,-5.74597 -0.2795,-6.46528 4.2489,-11.31274 6.5884,-7.05258 11.7493,-7.85102 21.0861,-3.26233 7.7469,3.8073 13.1248,10.43137 13.1248,16.16602 0,4.36416 -3.0412,11.10723 -6.3774,14.14004 -2.1475,1.95224 -2.6758,2.00114 -4.2741,0.39566 -1.5983,-1.60548 -1.4475,-2.37116 1.2196,-6.19426 4.367,-6.25975 4.9045,-9.96131 2.1068,-14.50794 -2.5961,-4.21911 -9.3915,-8.06115 -14.2577,-8.06115 -6.4058,0 -13.2991,9.1109 -11.7088,15.47556 0.4079,1.63237 3.7982,7.47661 7.5341,12.9872 10.4046,15.34725 11.7378,24.07017 5.0672,33.15255 -7.2497,9.87063 -20.2785,12.89082 -31.5127,7.3049 z m 1.4672,-7.25699 c -9.6737,-5.92553 -11.8783,-14.89782 -6.096,-24.80906 2.7951,-4.79114 3.4468,-5.25554 5.5357,-3.94512 2.2797,1.43011 2.2852,1.60435 0.1481,4.69224 -6.1054,8.82164 -5.4127,14.59315 2.385,19.87172 5.4431,3.68466 9.2439,2.94045 14.7005,-2.87838 6.2239,-6.63703 5.8925,-8.11359 -5.7031,-25.41313 -6.0812,-9.07259 -7.0184,-11.29895 -7.4852,-17.7816 -0.6204,-8.61575 2.3988,-15.4571 8.9811,-20.35037 5.589,-4.15483 17.1796,-4.76325 24.9517,-1.30976 21.8987,9.73051 28.0805,27.15131 15.6359,44.06304 -1.7776,2.4157 -2.4006,2.5801 -4.5848,1.20989 -2.486,-1.55951 -2.4647,-1.67767 1.2915,-7.16168 7.4838,-10.92636 5.5429,-20.54581 -5.9166,-29.32369 -13.2223,-10.12822 -27.3259,-8.36359 -33.8517,4.2355 -3.9966,7.71589 -1.6178,15.32906 9.845,31.50905 5.7978,8.18364 6.9534,13.96935 4.0275,20.16314 -4.1589,8.80364 -15.6237,12.27617 -23.8646,7.22821 z m -39.8892,-15.55813 c -2.75,-1.44634 -10.9062,-5.31891 -18.125,-8.60568 -8.0671,-3.67309 -12.9823,-6.60633 -12.7548,-7.61176 0.6575,-2.90503 29.389,-79.45442 30.1731,-80.39019 0.8444,-1.0077 30.7916,11.66509 41.0012,17.35057 3.5995,2.00445 6.5526,4.35075 6.5625,5.214 0.027,2.34719 -1.8091,1.94687 -9.9091,-2.16041 -11.3271,-5.74373 -32.9028,-15.1917 -33.4461,-14.646 -0.8038,0.80748 -29.2293,73.94632 -28.8515,74.23506 0.1924,0.14701 6.9199,3.22752 14.95,6.84558 17.6133,7.93581 19.4008,9.0887 17.0751,11.01262 -1.2547,1.03798 -2.9307,0.72572 -6.6754,-1.24379 z m 3.125,-6.57632 c -3.0937,-1.62637 -9.8437,-4.79178 -15,-7.03421 -5.1562,-2.24244 -9.5212,-4.16716 -9.7,-4.27719 -0.1788,-0.10999 2.6954,-7.49274 6.3871,-16.40607 5.572,-13.45317 7.1135,-16.13212 9.075,-15.77086 4.6243,0.85168 31.7379,14.40683 31.7379,15.86703 0,3.17903 -1.9051,2.69526 -15.7813,-4.0073 -7.8924,-3.81222 -14.5812,-6.69891 -14.864,-6.41485 -0.2827,0.28405 -2.7423,5.85769 -5.4658,12.38587 l -4.9516,11.8694 11.8446,5.77663 c 13.0044,6.34229 15.3535,8.04649 13.5306,9.81592 -0.7271,0.70588 -3.3679,0.006 -6.8125,-1.80437 z m -279.3982,-3.60943 c -6.4316,-2.81506 -11.677804,-10.35152 -22.584604,-32.4437 -11.1569,-22.59891 -12.2715,-27.06171 -8.7961,-35.22085 2.3992,-5.63252 7.66,-10.23303 16.1758,-14.14547 13.433904,-6.17194 22.959404,-5.69883 30.931904,1.53632 4.5357,4.11625 5.5284,6.33121 12.4254,27.72406 10.0738,31.2466 10.0052,39.33074 -0.4012,47.3039 -8.3964,6.43318 -20.0188,8.63014 -27.7512,5.24574 z m 20.5928,-5.75559 c 2.6647,-1.36557 6.0829,-4.22923 7.5959,-6.36368 4.5179,-6.37343 3.7272,-13.00467 -4.3254,-36.27603 -8.3207,-24.04613 -9.4932,-26.55464 -14.1276,-30.22493 -5.2096,-4.12588 -17.7961,-3.19397 -25.991304,1.9244 -8.1529,5.09193 -11.2212,9.5444 -11.2212,16.28345 0,8.05687 21.464304,51.13665 27.241604,54.67518 5.2763,3.23158 14.502,3.22345 20.828,-0.0184 z m -16.1946,-0.9152 c -4.4948,-1.65052 -7.7801,-6.82542 -17.609804,-27.73836 -11.0932,-23.60116 -12.1763,-28.22906 -8.0773,-34.51309 2.5336,-3.88422 11.2876,-8.41622 18.005004,-9.32127 6.0473,-0.81477 11.9611,2.12344 14.603,7.25533 3.2482,6.3097 16.8238,45.52583 16.8266,48.60728 10e-4,1.57603 -0.82,4.8431 -1.8254,7.26016 -2.7649,6.64715 -14.5065,11.173 -21.9221,8.44995 z m 11.6773,-4.76153 c 4.8808,-2.04852 7.0727,-5.07034 7.0727,-9.75045 0,-4.74294 -15.8488,-46.1646 -18.9201,-49.44857 -6.2807,-6.71569 -22.329904,-0.54255 -22.329904,8.58896 0,5.5175 18.139104,44.95225 22.556504,49.03844 4.3021,3.97944 5.4984,4.14125 11.6208,1.57162 z m 212.6977,1.857 c -6.1875,-2.03241 -15.3281,-4.6102 -20.3125,-5.7284 -4.9843,-1.11823 -9.0875,-2.6827 -9.1181,-3.47664 -0.031,-0.79392 3.7516,-20.231 8.405,-43.19349 8.1285,-40.111182 8.5723,-41.749985 11.3056,-41.749985 1.5648,0 2.845,0.517252 2.845,1.149448 0,0.632197 -3.9564,19.089847 -8.7921,41.016997 -4.8358,21.92715 -8.3514,40.22791 -7.8125,40.6683 0.5388,0.44042 3.7921,1.48714 7.2296,2.32608 3.4375,0.83892 11.1719,3.01636 17.1875,4.83879 8.5987,2.60494 10.9375,3.80817 10.9375,5.62684 0,1.27235 -0.1406,2.29177 -0.3125,2.26536 -0.1718,-0.0264 -5.375,-1.71088 -11.5625,-3.7433 z m 1.4031,-6.975 c -4.7283,-1.61551 -11.6272,-3.61852 -15.331,-4.45112 -6.6277,-1.48991 -6.7224,-1.57511 -5.9914,-5.39068 0.4085,-2.13226 4.517,-19.98042 9.13,-39.66255 7.645,-32.618774 8.6041,-35.747361 10.8383,-35.352425 1.3481,0.238305 2.6134,0.589782 2.8119,0.781056 0.1985,0.191275 -3.5984,16.226109 -8.4375,35.632979 -4.8391,19.40687 -8.7984,36.1655 -8.7984,37.24142 0,1.07592 0.7032,2.17919 1.5625,2.4517 0.8594,0.27251 7.3282,2.24885 14.375,4.39187 8.6848,2.64114 12.8125,4.49141 12.8125,5.74332 0,2.43279 -2.6131,2.15367 -12.9719,-1.38557 z m -140.7781,-4.80179 c 0,-0.68995 -11.0487,-72.127792 -11.8173,-76.407441 -0.5396,-3.004611 -0.2184,-3.453006 2.4736,-3.453006 1.7016,0 3.0944,0.423778 3.0952,0.941729 0,1.696223 9.9913,72.424288 10.7285,75.966138 0.6018,2.89134 0.2959,3.45301 -1.8806,3.45301 -1.4297,0 -2.5994,-0.22519 -2.5994,-0.50043 z m 8.1241,-1.09029 c -0.741,-2.15912 -5.6373,-40.25063 -5.2269,-40.66287 0.184,-0.18477 4.8105,-0.70959 10.2811,-1.16628 7.6056,-0.6349 11.0272,-0.37606 14.537,1.09967 7.6394,3.21202 8.987,6.63221 9.5724,24.29426 0.4899,14.78282 0.3978,15.51466 -1.9528,15.51466 -2.2792,0 -2.5191,-1.1358 -3.1511,-14.91599 -0.3763,-8.20381 -1.3095,-16.0896 -2.0737,-17.52401 -1.7807,-3.34228 -8.2656,-5.12952 -15.5993,-4.29917 -6.775,0.76708 -6.5434,-0.48761 -3.8758,20.99597 1.0258,8.26096 1.865,15.40473 1.865,15.87505 0,1.6342 -3.8478,2.32774 -4.3759,0.78871 z m 62.6725,-1.50419 c -6.5319,-2.33905 -11.8139,-7.69735 -13.3924,-13.58579 -0.8651,-3.22731 -1.0055,-16.70408 -0.416,-39.92633 l 0.8898,-35.054596 2.9961,0 2.996,0 -0.9975,24.171046 c -1.6983,41.15057 -1.4241,50.41067 1.6149,54.53113 3.5974,4.87769 8.7542,7.17296 16.1375,7.18275 7.31,0.01 11.7972,-2.50961 14.9119,-8.37219 1.2997,-2.44643 4.24,-17.52089 7.4041,-37.96012 4.987,-32.214176 5.3867,-33.92222 8.0287,-34.303482 1.8828,-0.271721 2.7803,0.247987 2.7803,1.610007 0,1.106184 -2.5395,16.775845 -5.6434,34.821475 -6.4326,37.39885 -7.8917,41.38324 -16.8089,45.90019 -6.3224,3.20257 -13.3652,3.54126 -20.5011,0.98591 z m -29.9935,-7.13439 c -0.4417,-4.24491 -0.8031,-11.33594 -0.8031,-15.75784 0,-9.71673 -2.2555,-14.6188 -8.1161,-17.63903 l -4.3209,-2.22672 3.7186,-2.50024 c 5.103,-3.43106 7.4693,-9.06098 7.4638,-17.75766 -0.01,-8.706382 -2.8716,-14.305808 -9.0026,-17.588694 -4.7852,-2.562261 -18.7286,-2.762593 -32.759,-0.470665 -6.8743,1.122932 -8.8437,1.082704 -9.6308,-0.196713 -1.5439,-2.509319 0.9072,-3.204389 17.2763,-4.898996 18.9331,-1.960057 27.4881,-0.520029 33.6434,5.663107 8.2667,8.303986 8.7872,26.102851 1.0156,34.729111 -2.1047,2.33616 -2.0896,2.56245 0.35,5.25335 4.7675,5.25876 5.3617,7.99643 5.3617,24.70316 0,12.98075 -0.3542,16.40585 -1.6969,16.40585 -1.1581,0 -1.9519,-2.45076 -2.5,-7.71802 z m 171.0575,2.34851 c -1.3671,-0.77534 -8.8681,-4.36514 -16.6689,-7.97732 -7.8008,-3.61218 -14.4438,-6.8293 -14.7622,-7.14913 -0.3185,-0.31984 2.358,-7.74325 5.9476,-16.49645 6.1975,-15.11282 6.6809,-15.87598 9.5905,-15.14243 2.7296,0.68817 33.8459,15.11536 34.9134,16.18775 0.2354,0.23638 0.088,1.32038 -0.3282,2.40891 -0.6283,1.64491 -3.3007,0.72111 -15.8252,-5.47066 -13.1407,-6.49642 -18.4776,-8.53184 -18.4776,-7.0472 0,0.22142 -2.2179,5.61529 -4.9287,11.98636 l -4.9288,11.58377 12.7413,6.06894 c 14.5573,6.93398 17.4522,8.90399 16.141,10.98408 -0.6944,1.10148 -1.5557,1.11746 -3.4142,0.0634 z m -140.473,-2.66094 c -6.9052,-3.84452 -7.3733,-9.34433 -4.7135,-55.3793 1.3883,-24.028954 1.5588,-25.094076 3.9509,-24.679495 1.375,0.238305 2.6678,0.595168 2.8728,0.793027 0.2051,0.197858 -0.6127,15.665377 -1.8172,34.372258 -1.4769,22.93647 -1.7969,35.1356 -0.9826,37.46133 2.2046,6.29707 13.7879,7.19607 17.0319,1.32187 0.8535,-1.54569 3.5577,-18.06637 6.0092,-36.7126 4.2711,-32.486079 4.5733,-33.919011 7.2341,-34.303491 1.8381,-0.265598 2.7768,0.251296 2.7768,1.528996 0,3.951823 -8.7655,63.084865 -10.0134,67.551105 -1.8127,6.48815 -6.4408,9.80922 -13.5926,9.75406 -3.1729,-0.0245 -7.1133,-0.79296 -8.7564,-1.70776 z m -69.3955,-37.38445 c -1.4912,-7.1963 -4.5942,-32.750637 -4.044,-33.303339 1.373,-1.379187 25.338,-1.837828 28.6139,-0.547612 7.103,2.797568 10.8544,16.214361 7.2192,25.818891 -1.659,4.3832 -7.8413,7.90053 -15.5218,8.83092 -3.5114,0.42536 -8.4715,1.07824 -11.0226,1.45085 -4.1068,0.59987 -4.7076,0.34213 -5.2447,-2.24971 z m 22.5377,-5.10996 c 6.5574,-3.00121 7.1458,-18.02052 0.917,-23.402541 -3.1447,-2.71717 -4.2406,-2.92183 -12.1003,-2.259921 -4.7534,0.400301 -8.843,0.929237 -9.0881,1.17541 -0.5104,0.512742 1.8827,23.279572 2.7194,25.870852 0.4267,1.32152 2.162,1.51036 7.6035,0.82741 3.8779,-0.48668 8.3547,-1.48173 9.9485,-2.21121 z m -83.3759,-77.453699 c -4.7059,-4.727084 -4.9523,-11.000125 -0.63,-16.035962 3.0106,-3.50757 3.0887,-3.522432 17.8125,-3.387652 8.7838,0.08041 17.9923,0.934777 22.6784,2.104122 7.8836,1.967192 7.8897,1.96659 7.6742,-0.763195 -0.5829,-7.384434 2.5934,-12.14923 8.0991,-12.14923 2.1943,0 3.149,-0.781123 3.4375,-2.8123594 0.5525,-3.8897378 3.8708,-4.1655855 11.3308,-0.9419119 4.3475,1.8787148 9.2114,2.8067453 15.391,2.9365993 10.4206,0.218974 13.7228,-1.7067183 15.0423,-8.7720025 0.9665,-5.1750698 2.5446,-5.4437815 3.6009,-0.6131214 2.0951,9.5819239 13.0406,12.4547359 29.8274,7.8285931 11.8958,-3.2782959 13.9386,-3.2946885 17.082,-0.1370746 1.375,1.3812024 3.6506,2.5112774 5.0569,2.5112774 1.4062,0 3.9942,1.443916 5.7511,3.208705 2.6478,2.659809 3.0561,3.94858 2.3865,7.533832 -0.4442,2.37882 -0.6416,4.313831 -0.4386,4.300024 0.203,-0.01381 5.1504,-0.888814 10.9941,-1.94446 5.8438,-1.055647 15.1508,-2.239223 20.6822,-2.63017 l 10.0571,-0.710813 4.0054,4.582423 c 5.1623,5.906081 5.6161,13.191145 1.0105,16.22245 -8.1716,5.378431 -15.7552,3.030831 -15.7552,-4.877263 0,-3.436397 0.663,-4.696141 3.0453,-5.786493 3.2976,-1.50924 6.9547,-0.72423 6.9547,1.49283 0,0.758814 -0.9843,1.071965 -2.1875,0.695892 -3.2398,-1.012722 -5.5883,1.020491 -5.1093,4.423456 0.3299,2.343624 1.295,3.081943 4.4266,3.386235 9.4388,0.917165 12.5948,-7.248364 5.4566,-14.118046 -3.4253,-3.296434 -4.1775,-3.482634 -11.5625,-2.862076 -4.3444,0.365057 -13.2426,1.553306 -19.7739,2.640556 -15.077,2.509861 -18.75,2.545626 -18.75,0.182581 0,-1.011604 1.125,-2.444079 2.5,-3.183276 5.5331,-2.974533 1.5263,-9.661139 -5.0031,-8.349374 -3.1323,0.629298 -3.7469,0.353272 -3.7469,-1.682948 0,-4.5832773 -4.3526,-5.4696768 -13.5302,-2.755406 -12.7281,3.764342 -18.1962,4.253626 -24.2238,2.167568 -2.9353,-1.01587 -6.4005,-3.313591 -7.7003,-5.1060437 l -2.3634,-3.2590053 -3.4599,4.1561401 c -3.4213,4.1098229 -3.5762,4.1553159 -13.9036,4.0821949 -8.0085,-0.05671 -11.8953,-0.728808 -16.6689,-2.882387 -5.6251,-2.5377502 -6.3654,-2.6157676 -7.6803,-0.8094288 -0.8003,1.0994598 -1.1678,3.1028308 -0.8166,4.4519378 0.6591,2.53176 -1.4086,3.422932 -2.778,1.197281 -1.1585,-1.88308 -3.9378,-1.515413 -6.2724,0.829791 -1.5974,1.604553 -1.8886,3.341767 -1.2627,7.533832 0.9495,6.360564 0.6906,6.44172 -11.2149,3.5156 -4.125,-1.01384 -13.5065,-2.2078 -20.8478,-2.653241 l -13.3478,-0.809895 -3.8397,3.85702 c -2.1118,2.121362 -3.8397,4.70469 -3.8397,5.740728 0,3.254085 6.255,9.610217 9.4573,9.610217 4.2958,0 7.2428,-4.925584 5.5783,-9.323362 -1.2851,-3.395297 -3.7856,-3.408391 -3.7856,-0.01983 0,0.995145 -0.5625,1.809354 -1.25,1.809354 -1.7407,0 -1.5664,-4.202451 0.25,-6.027066 3.5181,-3.533923 7.3231,0.189623 7.5262,7.365026 0.2428,8.577136 -8.8741,11.564333 -15.3723,5.036821 z"
     id="path3372"
     inkscape:connector-curvature="0" />
</svg>
